<svg width="20" height="20" viewBox="0 0 20 20" fill="green" xmlns="http://www.w3.org/2000/svg">
<g clip-path="url(#clip0_633_390)">
<path d="M3.21877 17.086C4.9968 17.086 6.43773 15.6447 6.43773 13.8671C6.43773 13.7554 6.43208 13.6454 6.42084 13.5367L7.71785 13.309C7.71785 13.309 7.76177 13.2505 8.08147 13.5708C8.21818 13.7075 8.40422 13.7249 8.57391 13.7027C8.8756 13.8047 9.55799 14.0009 10.3461 14.0009C10.9576 14.0009 11.6311 13.8819 12.2331 13.5069C13.1511 12.9343 13.6941 11.8923 13.8584 10.4181C14.2627 9.97235 14.6837 9.62451 15.0964 9.35369L15.4509 10.4095C14.3376 10.916 13.5622 12.0357 13.5622 13.3382C13.5622 15.1159 15.0038 16.5569 16.7811 16.5569C18.5585 16.5569 20.0001 15.1156 20.0001 13.3382C20.0001 11.5602 18.5585 10.1195 16.7811 10.1195C16.5386 10.1195 16.3029 10.1484 16.0755 10.1994L15.6779 9.01486C16.9182 8.38284 17.9448 8.39235 17.9448 8.39235L18.3302 8.60322L19.6102 8.70503C18.8393 7.81058 15.7989 7.97022 15.7989 7.97022L16.4467 7.8612C16.4467 7.8612 16.4247 7.16291 16.0247 6.30462C15.6246 5.44638 15.1881 4.94443 15.1881 4.94443C15.1482 4.98946 15.1221 5.04257 15.1015 5.09754C15.1086 4.50671 15.1163 3.91588 15.1617 3.32598C15.1624 3.31778 15.1595 3.31212 15.1591 3.30461C15.1736 3.24398 15.1543 3.1787 15.0803 3.14249C14.8416 3.0259 14.6068 2.92751 14.3383 2.91428C14.2653 2.91074 14.1984 2.96733 14.1797 3.03522C14.0948 3.34206 14.0724 3.66357 14.1089 3.97874C14.0825 3.92532 14.0568 3.87209 14.0279 3.81935C13.9832 3.73898 13.9056 3.72668 13.8387 3.75152C13.7635 3.7386 13.6779 3.76761 13.6445 3.85892C13.5905 4.00638 13.473 4.10558 13.4669 4.27639C13.4574 4.54497 13.7693 4.71945 13.9668 4.82685C14.0041 4.84728 14.0414 4.84828 14.0768 4.84163C14.1738 5.23482 14.2061 5.64092 14.1822 6.0579C13.5814 6.44754 13.813 6.80296 13.813 6.80296L13.7039 6.98837C13.7039 6.98837 13.1363 6.18107 11.2817 7.38125C9.42718 8.58142 7.96519 7.81766 6.74327 7.38125C5.52142 6.94477 1.02632 6.83594 1.02632 6.83594C3.23759 7.17043 4.21217 8.98877 4.21217 8.98877L2.46663 7.91245C1.69554 7.98531 1.89909 8.79982 1.89909 8.79982L5.11401 10.7636C5.73944 10.5307 6.45221 11.229 6.45221 11.229L7.12137 12.4075L6.20456 12.6686C5.72851 11.4853 4.57262 10.649 3.21884 10.649C1.44093 10.649 0 12.0903 0 13.8677C0 15.645 1.44124 17.086 3.21877 17.086ZM16.7807 11.1071C18.011 11.1071 19.0113 12.1077 19.0113 13.3379C19.0113 14.5679 18.011 15.5684 16.7807 15.5684C15.5505 15.5684 14.5502 14.5679 14.5502 13.3379C14.5502 12.473 15.0456 11.723 15.7673 11.3531L16.4684 13.4424C16.5148 13.5801 16.6431 13.6673 16.7807 13.6673C16.8151 13.6673 16.8505 13.6615 16.8853 13.6503C17.0576 13.592 17.1506 13.4055 17.0931 13.2327L16.3919 11.1431C16.5183 11.1209 16.6479 11.1071 16.7807 11.1071ZM14.4962 4.55404C14.5965 4.47572 14.6934 4.39919 14.7856 4.31857C14.7728 4.80567 14.7702 5.29314 14.7599 5.78056C14.6724 5.81273 14.5933 5.84534 14.5206 5.87801C14.5293 5.43806 14.4755 5.00816 14.3524 4.59386C14.399 4.60081 14.4499 4.58963 14.4962 4.55404ZM10.991 9.70122C12.5251 9.24114 13.0455 9.93378 13.209 10.304C13.0735 11.5886 12.632 12.4802 11.887 12.9462C10.9099 13.557 9.6298 13.3183 9.01517 13.1475C9.08269 12.2454 9.40979 10.1756 10.991 9.70122ZM3.21877 11.6365C4.11838 11.6365 4.89288 12.1727 5.24569 12.9411L2.82994 13.629L2.91727 14.1527L5.44129 13.7091C5.44502 13.7615 5.44931 13.8137 5.44931 13.8671C5.44931 15.0973 4.4487 16.0979 3.2184 16.0979C1.98829 16.0979 0.987683 15.0973 0.987683 13.8671C0.988055 12.6371 1.98897 11.6365 3.21877 11.6365Z" />
<path d="M12.8094 10.8723H9.90696L9.42676 12.9236C12.351 13.4688 12.8094 10.8723 12.8094 10.8723Z" />
</g>
<defs>
<clipPath id="clip0_633_390">
<rect width="20" height="20" fill="white"/>
</clipPath>
</defs>
</svg>
