<svg width="20" height="20" viewBox="0 0 21 12" fill="green" xmlns="http://www.w3.org/2000/svg">
<path d="M4.92188 6.67969C4.50005 6.67969 4.08769 6.80477 3.73695 7.03913C3.38621 7.27349 3.11284 7.60659 2.95141 7.99631C2.78999 8.38603 2.74775 8.81487 2.83004 9.22859C2.91234 9.64232 3.11547 10.0223 3.41375 10.3206C3.71203 10.6189 4.09206 10.822 4.50578 10.9043C4.91951 10.9866 5.34835 10.9444 5.73807 10.783C6.12779 10.6215 6.46089 10.3482 6.69524 9.99743C6.9296 9.64669 7.05469 9.23433 7.05469 8.8125C7.05405 8.24704 6.82914 7.70492 6.42929 7.30508C6.02945 6.90524 5.48734 6.68033 4.92188 6.67969ZM4.92188 9.79688C4.72718 9.79688 4.53687 9.73914 4.37499 9.63098C4.21311 9.52281 4.08694 9.36907 4.01243 9.1892C3.93793 9.00933 3.91843 8.81141 3.95642 8.62046C3.9944 8.42951 4.08815 8.25411 4.22582 8.11644C4.36348 7.97877 4.53888 7.88502 4.72983 7.84704C4.92078 7.80906 5.11871 7.82855 5.29858 7.90306C5.47845 7.97756 5.63219 8.10373 5.74035 8.26561C5.84852 8.42749 5.90625 8.61781 5.90625 8.8125C5.90625 9.07357 5.80254 9.32395 5.61793 9.50856C5.43333 9.69316 5.18295 9.79688 4.92188 9.79688Z" />
<path d="M16.7344 6.67969C16.3125 6.67969 15.9002 6.80477 15.5494 7.03913C15.1987 7.27349 14.9253 7.60659 14.7639 7.99631C14.6025 8.38603 14.5603 8.81487 14.6425 9.22859C14.7248 9.64232 14.928 10.0223 15.2262 10.3206C15.5245 10.6189 15.9046 10.822 16.3183 10.9043C16.732 10.9866 17.1608 10.9444 17.5506 10.783C17.9403 10.6215 18.2734 10.3482 18.5077 9.99743C18.7421 9.64669 18.8672 9.23433 18.8672 8.8125C18.8665 8.24704 18.6416 7.70492 18.2418 7.30508C17.842 6.90524 17.2998 6.68033 16.7344 6.67969ZM16.7344 9.79688C16.5397 9.79688 16.3494 9.73914 16.1875 9.63098C16.0256 9.52281 15.8994 9.36907 15.8249 9.1892C15.7504 9.00933 15.7309 8.81141 15.7689 8.62046C15.8069 8.42951 15.9007 8.25411 16.0383 8.11644C16.176 7.97877 16.3514 7.88502 16.5423 7.84704C16.7333 7.80906 16.9312 7.82855 17.1111 7.90306C17.291 7.97756 17.4447 8.10373 17.5529 8.26561C17.661 8.42749 17.7188 8.61781 17.7188 8.8125C17.7188 9.07357 17.615 9.32395 17.4304 9.50856C17.2458 9.69316 16.9954 9.79688 16.7344 9.79688Z" />
<path d="M19.5809 4.91766L15.75 4.21876L12.4886 1.51275C12.1654 1.24724 11.7602 1.10194 11.3419 1.10157H6.53707C6.26631 1.10093 5.9989 1.16152 5.75486 1.27881C5.51082 1.39611 5.29646 1.56707 5.12781 1.7789L3.04467 4.21876H1.64062C1.24915 4.21919 0.873832 4.37489 0.597017 4.65171C0.320202 4.92852 0.164497 5.30384 0.164062 5.69532V7.5C0.164594 7.97847 0.354901 8.4372 0.693231 8.77553C1.03156 9.11385 1.49028 9.30416 1.96875 9.30469H2.34384C2.27103 8.925 2.283 8.53391 2.37888 8.15937C2.47476 7.78484 2.65219 7.4361 2.89849 7.13809C3.14478 6.84009 3.45386 6.60016 3.80364 6.43547C4.15342 6.27077 4.53526 6.18538 4.92188 6.18538C5.30849 6.18538 5.69033 6.27077 6.04011 6.43547C6.38989 6.60016 6.69897 6.84009 6.94526 7.13809C7.19156 7.4361 7.36899 7.78484 7.46487 8.15937C7.56075 8.53391 7.57272 8.925 7.49991 9.30469H14.1563C14.0835 8.925 14.0955 8.53391 14.1914 8.15937C14.2873 7.78484 14.4647 7.4361 14.711 7.13809C14.9573 6.84009 15.2664 6.60016 15.6161 6.43547C15.9659 6.27077 16.3478 6.18538 16.7344 6.18538C17.121 6.18538 17.5028 6.27077 17.8526 6.43547C18.2024 6.60016 18.5115 6.84009 18.7578 7.13809C19.0041 7.4361 19.1815 7.78484 19.2774 8.15937C19.3732 8.53391 19.3852 8.925 19.3124 9.30469H19.3594C19.7509 9.30426 20.1262 9.14855 20.403 8.87174C20.6798 8.59492 20.8355 8.21961 20.8359 7.82813V6.37749C20.8377 6.02378 20.7117 5.68132 20.4811 5.41311C20.2505 5.14489 19.9308 4.96896 19.5809 4.91766ZM7.38281 3.72657C7.38281 3.8571 7.33096 3.98229 7.23865 4.0746C7.14635 4.1669 7.02116 4.21876 6.89062 4.21876H4.72685C4.67979 4.21878 4.63371 4.20532 4.59408 4.17996C4.55444 4.1546 4.52291 4.11841 4.50321 4.07567C4.48351 4.03294 4.47648 3.98545 4.48295 3.93885C4.48941 3.89224 4.50911 3.84846 4.53969 3.8127L5.97179 2.13516C6.01803 2.0811 6.07543 2.03771 6.14005 2.00797C6.20467 1.97823 6.27497 1.96286 6.3461 1.9629H6.89062C7.02116 1.9629 7.14635 2.01475 7.23865 2.10705C7.33096 2.19936 7.38281 2.32455 7.38281 2.45508V3.72657ZM9.84375 6.02344H9.1875C9.05696 6.02344 8.93177 5.97159 8.83947 5.87928C8.74717 5.78698 8.69531 5.66179 8.69531 5.53125C8.69531 5.40072 8.74717 5.27553 8.83947 5.18323C8.93177 5.09092 9.05696 5.03907 9.1875 5.03907H9.84375C9.97429 5.03907 10.0995 5.09092 10.1918 5.18323C10.2841 5.27553 10.3359 5.40072 10.3359 5.53125C10.3359 5.66179 10.2841 5.78698 10.1918 5.87928C10.0995 5.97159 9.97429 6.02344 9.84375 6.02344ZM13.7189 4.23081L9.02229 4.2199C8.89195 4.2196 8.76706 4.16761 8.675 4.07534C8.58295 3.98307 8.53125 3.85805 8.53125 3.72772V2.45508C8.53125 2.32455 8.58311 2.19936 8.67541 2.10705C8.76771 2.01475 8.8929 1.9629 9.02344 1.9629H11.3838C11.4944 1.9629 11.6018 2.00018 11.6887 2.06872L13.8719 3.79137C13.9121 3.82306 13.9414 3.86651 13.9558 3.91568C13.9702 3.96484 13.9689 4.01726 13.952 4.06563C13.9352 4.11401 13.9037 4.15592 13.8619 4.18553C13.8201 4.21514 13.7701 4.23097 13.7189 4.23081Z" />
</svg>
