<svg width="38" height="38" viewBox="0 0 38 38" fill="none" xmlns="http://www.w3.org/2000/svg">
<path d="M15.9074 28C15.0587 28.9375 13.8375 29.5253 12.4805 29.5253C11.7267 29.5253 11.0151 29.3438 10.3859 29.022L8 32.8167C9.31798 33.5702 10.839 34 12.4582 34C15.0252 34 17.3468 32.9187 19 31.1833C18.4159 30.787 17.8691 30.3321 17.3641 29.8227C16.8117 29.2641 16.3244 28.6551 15.9074 28Z" fill="#00A13C"/>
<path d="M29.8132 13.3554L28.8906 9.7646H26.5024C26.4451 9.44048 26.3643 9.12376 26.2637 8.81667C26.157 8.48934 26.0269 8.17287 25.875 7.86874C24.7324 5.57618 22.3826 4 19.675 4H18.4475C14.6213 4 11.5088 7.14718 11.5088 11.0154V12.9105H8.71558L7.80493 16.4527C6.43677 17.2345 5.2793 18.351 4.43994 19.7028C3.49805 21.22 3 22.9737 3 24.7735C3 27.6578 4.27051 30.2476 6.27563 32L8.80811 27.9693C8.08008 27.1137 7.6394 26.0009 7.6394 24.7836C7.6394 22.0872 9.80176 19.9006 12.4695 19.9006C13.1338 19.9006 13.7668 20.0366 14.343 20.2817C14.5637 18.6942 15.1113 17.1698 15.9587 15.8042C16.1755 15.4549 16.4106 15.1187 16.6619 14.7963L16.1768 12.9105H13.3838V11.0154C13.3838 8.19237 15.655 5.89586 18.4475 5.89586H19.675C21.2944 5.89586 22.7393 6.66877 23.6663 7.86874C23.8926 8.16151 24.0874 8.47873 24.2468 8.81667C24.3894 9.11759 24.5032 9.4348 24.585 9.7646H22.2168L21.2937 13.3554C19.7749 14.1327 18.4919 15.312 17.5825 16.7561C16.6987 18.157 16.167 19.8065 16.1125 21.5777C16.1094 21.6789 16.1074 21.7806 16.1074 21.8823C16.1074 23.42 16.4668 24.8723 17.105 26.1581C17.6506 27.2596 18.4014 28.2391 19.3062 29.0461L19.8181 28.2317L21.542 25.4877C20.7031 24.5296 20.1938 23.2709 20.1938 21.8944C20.1938 21.1899 20.3269 20.5162 20.5701 19.8981C21.3574 17.8897 23.2988 16.466 25.5618 16.466C26.1694 16.466 26.7537 16.5682 27.2988 16.7578C27.3401 16.7719 27.3818 16.7869 27.4226 16.802C27.4543 16.8141 27.4863 16.8262 27.5181 16.8388L27.6118 16.8768C29.5657 17.6855 30.9412 19.6275 30.9412 21.8944C30.9412 24.2403 29.468 26.2379 27.4055 26.9923C27.3237 27.0226 27.2407 27.0513 27.1562 27.0777C27.125 27.0878 27.093 27.0972 27.0613 27.1068C26.5857 27.247 26.0825 27.3223 25.5618 27.3223C24.6418 27.3223 23.7756 27.0871 23.0181 26.6733L21.3357 29.3522L20.8313 30.156C22.2207 30.9686 23.833 31.4337 25.5537 31.4337C30.7705 31.4337 35 27.1574 35 21.8823C35 18.157 32.8906 14.9303 29.8132 13.3554ZM13.3501 17.1042H11.5425V15.2767H13.3501V17.1042ZM26.4575 14.0861H24.6499V12.2584H26.4575V14.0861Z" fill="#00A13C"/>
</svg>
