<svg width="411" height="81" viewBox="0 0 411 81" fill="none" xmlns="http://www.w3.org/2000/svg">
<rect y="81" width="81" height="127" rx="8" transform="rotate(-90 0 81)" fill="#9E9E9E" fill-opacity="0.1"/>
<rect x="142" y="81" width="81" height="127" rx="8" transform="rotate(-90 142 81)" fill="#9E9E9E" fill-opacity="0.1"/>
<rect x="284" y="81" width="81" height="127" rx="8" transform="rotate(-90 284 81)" fill="#9E9E9E" fill-opacity="0.1"/>
<path d="M28.296 58.168H29.608L32.136 66.312L34.808 57.8H36.408L32.92 69H31.544L28.952 60.584L26.36 69H24.984L21.496 57.8H23.096L25.768 66.312L28.296 58.168ZM36.7338 65C36.7338 62.696 38.3018 60.824 40.7018 60.824C41.7898 60.824 42.8298 61.192 43.5978 62.28V61H45.1498V69H43.5978V67.72C42.8298 68.808 41.7898 69.176 40.7018 69.176C38.3018 69.176 36.7338 67.304 36.7338 65ZM43.6298 65C43.6298 63.384 42.5098 62.2 40.8938 62.2C39.2298 62.2 38.2858 63.48 38.2858 65C38.2858 66.52 39.2298 67.8 40.8938 67.8C42.5098 67.8 43.6298 66.616 43.6298 65ZM49.207 57.432V69H47.655V57.432H49.207ZM53.2524 64.36L56.0044 61H57.7324V61.176L54.8044 64.68L56.1644 66.744C56.6444 67.4 56.8524 67.816 57.5724 67.816C57.7484 67.816 58.2444 67.816 58.6124 67.512L59.1404 68.552C58.5004 69.192 57.5724 69.176 57.3964 69.176C55.8604 69.176 55.3324 68.12 54.8684 67.48L53.2524 64.888V69H51.7004V57.432H53.2524V64.36ZM63.6686 66.376L65.1726 65.992C65.3806 66.936 66.3566 67.752 67.7646 67.752C69.2366 67.752 70.1326 67.016 70.1326 66.04C70.1326 65.144 69.3966 64.616 68.4846 64.28L66.8046 63.704C64.5966 62.984 64.2126 61.688 64.2126 60.712C64.2126 58.792 65.9086 57.624 67.8126 57.624C69.8126 57.624 71.1406 58.728 71.4766 60.28L70.0366 60.712C69.7646 59.576 68.9646 59.064 67.8126 59.064C66.7406 59.064 65.8286 59.656 65.8286 60.68C65.8286 61.176 65.9726 61.768 67.2846 62.28L68.9806 62.92C70.8206 63.48 71.7006 64.76 71.7006 65.928C71.7006 67.912 70.1486 69.176 67.7966 69.176C65.5726 69.176 64.0526 67.928 63.6686 66.376ZM73.0619 65.096C73.0619 62.744 74.6619 60.824 77.5579 60.824C78.2779 60.824 79.3339 60.984 80.4219 61.8L79.6859 62.856C78.8379 62.216 77.8459 62.2 77.6219 62.2C75.8939 62.2 74.6139 63.352 74.6139 65C74.6139 66.648 75.8939 67.8 77.6219 67.8C77.8459 67.8 78.8379 67.784 79.6859 67.144L80.4219 68.2C79.3339 69.016 78.2779 69.176 77.5579 69.176C74.7259 69.176 73.0619 67.352 73.0619 65.096ZM81.3271 65C81.3271 62.696 83.2151 60.824 85.5191 60.824C87.8391 60.824 89.7271 62.696 89.7271 65C89.7271 67.304 87.8391 69.176 85.5191 69.176C83.2151 69.176 81.3271 67.32 81.3271 65ZM82.8791 65.016C82.8791 66.552 84.0631 67.8 85.5191 67.8C86.9911 67.8 88.1751 66.552 88.1751 65.016C88.1751 63.48 86.9911 62.2 85.5191 62.2C84.0631 62.2 82.8791 63.48 82.8791 65.016ZM93.1278 61V62.808C93.3998 61.528 94.2638 60.824 95.2718 60.824C95.5758 60.824 95.7678 60.888 96.0078 61V62.52C95.7518 62.376 95.4638 62.312 95.1598 62.312C94.6318 62.312 93.1278 62.584 93.1278 65.976V69H91.5758V61H93.1278ZM103.807 66.792L104.671 67.688C103.647 68.84 102.367 69.176 101.167 69.176C98.3832 69.176 96.6553 67.288 96.6553 65.032C96.6553 62.68 98.4633 60.824 100.959 60.824C103.071 60.824 105.039 62.184 105.039 65.144H98.2073C98.1593 66.68 99.4073 67.8 101.183 67.8C102.159 67.8 103.023 67.464 103.807 66.792ZM100.991 62.184C100.063 62.184 98.8633 62.552 98.3513 63.944H103.439C103.007 62.488 101.871 62.184 100.991 62.184Z" fill="#061A23"/>
<circle cx="46" cy="29" r="17" fill="#F1F4F6"/>
<circle cx="46" cy="29" r="16.5" stroke="black" stroke-opacity="0.1"/>
<circle cx="78" cy="29" r="21" fill="#FAFDFF"/>
<circle cx="78" cy="29" r="20.5" stroke="black" stroke-opacity="0.1"/>
<path d="M77.6098 28.84C76.8098 30.58 75.0898 31.12 73.7498 31.12C71.1298 31.12 68.8298 29.28 68.8298 26.44C68.8298 23.74 70.9098 21.78 73.8898 21.78C77.4698 21.78 79.4698 24.58 79.4698 28.68C79.4698 32.86 77.3698 36.22 73.5498 36.22C71.7898 36.22 70.4298 35.52 69.6498 34.66L70.9498 33.48C71.4898 34.12 72.5698 34.46 73.5298 34.46C75.9298 34.46 77.6098 32.1 77.6098 28.84ZM77.2698 26.46C77.2698 24.7 75.7698 23.54 73.9898 23.54C72.2298 23.54 70.7898 24.7 70.7898 26.46C70.7898 28.22 72.2298 29.38 73.9898 29.38C75.7698 29.38 77.2698 28.22 77.2698 26.46ZM81.3493 25.78L80.8493 24.16L85.4893 22H86.4693V36H84.5293V24.36L81.3493 25.78Z" fill="#00A13C"/>
<g clip-path="url(#clip0_2755_28221)">
<path d="M44.3683 30.4844L43.1092 37.0933C43.0446 37.4609 43.2565 37.821 43.6092 37.9429C44.0057 38.08 44.4383 37.8696 44.5753 37.4731L46.013 33.1602L45.8952 32.7576L44.3683 30.4844Z" fill="#FE6907"/>
<path d="M46.3225 22.4184C47.2664 22.4184 48.0317 21.6532 48.0317 20.7092C48.0317 19.7652 47.2664 19 46.3225 19C45.3785 19 44.6133 19.7652 44.6133 20.7092C44.6133 21.6532 45.3785 22.4184 46.3225 22.4184Z" fill="#FE6907"/>
<path d="M51.5895 27.6148V27.6224H51.5781C50.7862 27.1666 50.2221 26.3823 49.6334 25.4441C49.327 24.9176 48.9823 24.4142 48.6022 23.9381C48.3588 23.6498 48.0725 23.4006 47.7533 23.1994C47.571 23.0869 47.3767 22.9953 47.1741 22.9259C46.9594 22.86 46.7374 22.8204 46.5132 22.8081C46.4082 22.8009 46.3029 22.8009 46.1979 22.8081C46.0955 22.8109 45.9933 22.8204 45.8921 22.8366C45.6855 22.8653 45.4825 22.9156 45.2863 22.9867C44.9151 23.1275 44.5722 23.334 44.2741 23.5963C44.0169 23.8255 43.7834 24.08 43.5771 24.3559C43.3872 24.6104 43.2106 24.8649 43.0549 25.1156C42.4282 26.1088 41.9325 27.0337 41.2488 27.7496C40.9378 28.0328 40.9153 28.5145 41.1985 28.8255C41.4817 29.1365 41.9634 29.159 42.2743 28.8758C42.757 28.4775 43.1921 28.0251 43.5714 27.5274C43.9418 27.0508 44.2627 26.5665 44.5761 26.1221L44.614 26.0651V29.2556C44.613 29.4084 44.658 29.558 44.7432 29.6848L46.591 32.4366L48.0647 37.4522C48.1816 37.8551 48.603 38.087 49.0059 37.9701C49.3701 37.8645 49.6006 37.5065 49.546 37.1313L48.9212 32.7633C48.9172 32.7345 48.9115 32.706 48.9041 32.6778L48.0324 29.3468V26.3082L48.1274 26.443C48.4715 26.9517 48.8591 27.4295 49.2859 27.8712C49.758 28.3499 50.3211 28.7296 50.9419 28.9879C51.3281 29.1518 51.774 28.9716 51.9379 28.5854C52.0928 28.2205 51.9411 27.7979 51.5895 27.6148Z" fill="#FE6907"/>
</g>
<path d="M175.311 60.68C175.311 61.848 174.639 62.904 173.167 63.272C174.959 63.448 175.855 64.632 175.855 66.024C175.855 67.816 174.351 69 172.127 69H167.631V57.8H171.615C173.743 57.8 175.311 58.888 175.311 60.68ZM171.311 63.992H169.231V67.688H172.127C173.343 67.688 174.207 67.016 174.207 65.976C174.207 64.952 173.359 63.992 171.311 63.992ZM169.231 62.744H170.975C172.943 62.744 173.663 61.768 173.663 60.792C173.663 59.688 172.703 59.112 171.615 59.112H169.231V62.744ZM179.348 69H177.796V61H179.348V69ZM177.492 58.424C177.492 59.048 177.94 59.496 178.564 59.496C179.188 59.496 179.652 59.048 179.652 58.424C179.652 57.8 179.188 57.336 178.564 57.336C177.94 57.336 177.492 57.8 177.492 58.424ZM183.393 64.36L186.145 61H187.873V61.176L184.945 64.68L186.305 66.744C186.785 67.4 186.993 67.816 187.713 67.816C187.889 67.816 188.385 67.816 188.753 67.512L189.281 68.552C188.641 69.192 187.713 69.176 187.537 69.176C186.001 69.176 185.473 68.12 185.009 67.48L183.393 64.888V69H181.841V57.432H183.393V64.36ZM196.573 66.792L197.437 67.688C196.413 68.84 195.133 69.176 193.933 69.176C191.149 69.176 189.421 67.288 189.421 65.032C189.421 62.68 191.229 60.824 193.725 60.824C195.837 60.824 197.805 62.184 197.805 65.144H190.973C190.925 66.68 192.173 67.8 193.949 67.8C194.925 67.8 195.789 67.464 196.573 66.792ZM193.757 62.184C192.829 62.184 191.629 62.552 191.117 63.944H196.205C195.773 62.488 194.637 62.184 193.757 62.184ZM203.059 66.376L204.563 65.992C204.771 66.936 205.747 67.752 207.155 67.752C208.627 67.752 209.523 67.016 209.523 66.04C209.523 65.144 208.787 64.616 207.875 64.28L206.195 63.704C203.987 62.984 203.603 61.688 203.603 60.712C203.603 58.792 205.299 57.624 207.203 57.624C209.203 57.624 210.531 58.728 210.867 60.28L209.427 60.712C209.155 59.576 208.355 59.064 207.203 59.064C206.131 59.064 205.219 59.656 205.219 60.68C205.219 61.176 205.363 61.768 206.675 62.28L208.371 62.92C210.211 63.48 211.091 64.76 211.091 65.928C211.091 67.912 209.539 69.176 207.187 69.176C204.963 69.176 203.443 67.928 203.059 66.376ZM212.453 65.096C212.453 62.744 214.053 60.824 216.949 60.824C217.669 60.824 218.725 60.984 219.812 61.8L219.077 62.856C218.229 62.216 217.237 62.2 217.013 62.2C215.285 62.2 214.005 63.352 214.005 65C214.005 66.648 215.285 67.8 217.013 67.8C217.237 67.8 218.229 67.784 219.077 67.144L219.812 68.2C218.725 69.016 217.669 69.176 216.949 69.176C214.117 69.176 212.453 67.352 212.453 65.096ZM220.718 65C220.718 62.696 222.606 60.824 224.91 60.824C227.23 60.824 229.118 62.696 229.118 65C229.118 67.304 227.23 69.176 224.91 69.176C222.606 69.176 220.718 67.32 220.718 65ZM222.27 65.016C222.27 66.552 223.454 67.8 224.91 67.8C226.382 67.8 227.566 66.552 227.566 65.016C227.566 63.48 226.382 62.2 224.91 62.2C223.454 62.2 222.27 63.48 222.27 65.016ZM232.518 61V62.808C232.79 61.528 233.654 60.824 234.662 60.824C234.966 60.824 235.158 60.888 235.398 61V62.52C235.142 62.376 234.854 62.312 234.55 62.312C234.022 62.312 232.518 62.584 232.518 65.976V69H230.966V61H232.518ZM243.198 66.792L244.062 67.688C243.038 68.84 241.758 69.176 240.558 69.176C237.774 69.176 236.046 67.288 236.046 65.032C236.046 62.68 237.854 60.824 240.35 60.824C242.462 60.824 244.43 62.184 244.43 65.144H237.598C237.55 66.68 238.798 67.8 240.574 67.8C241.55 67.8 242.414 67.464 243.198 66.792ZM240.382 62.184C239.454 62.184 238.254 62.552 237.742 63.944H242.83C242.398 62.488 241.262 62.184 240.382 62.184Z" fill="#061A23"/>
<circle cx="188" cy="29" r="17" fill="#F1F4F6"/>
<circle cx="188" cy="29" r="16.5" stroke="black" stroke-opacity="0.1"/>
<circle cx="220" cy="29" r="21" fill="#FAFDFF"/>
<circle cx="220" cy="29" r="20.5" stroke="black" stroke-opacity="0.1"/>
<path d="M219.61 28.84C218.81 30.58 217.09 31.12 215.75 31.12C213.13 31.12 210.83 29.28 210.83 26.44C210.83 23.74 212.91 21.78 215.89 21.78C219.47 21.78 221.47 24.58 221.47 28.68C221.47 32.86 219.37 36.22 215.55 36.22C213.79 36.22 212.43 35.52 211.65 34.66L212.95 33.48C213.49 34.12 214.57 34.46 215.53 34.46C217.93 34.46 219.61 32.1 219.61 28.84ZM219.27 26.46C219.27 24.7 217.77 23.54 215.99 23.54C214.23 23.54 212.79 24.7 212.79 26.46C212.79 28.22 214.23 29.38 215.99 29.38C217.77 29.38 219.27 28.22 219.27 26.46ZM223.349 25.78L222.849 24.16L227.489 22H228.469V36H226.529V24.36L223.349 25.78Z" fill="#00A13C"/>
<g clip-path="url(#clip1_2755_28221)">
<path d="M181.897 34.3777C183.497 34.3777 184.794 33.0806 184.794 31.4807C184.794 31.3802 184.789 31.2812 184.779 31.1834L185.946 30.9785C185.946 30.9785 185.986 30.9258 186.273 31.2141C186.396 31.3371 186.564 31.3527 186.717 31.3328C186.988 31.4246 187.602 31.6012 188.311 31.6012C188.862 31.6012 189.468 31.494 190.01 31.1565C190.836 30.6412 191.325 29.7034 191.473 28.3767C191.836 27.9755 192.215 27.6624 192.587 27.4187L192.906 28.3688C191.904 28.8247 191.206 29.8324 191.206 31.0047C191.206 32.6047 192.503 33.9015 194.103 33.9015C195.703 33.9015 197 32.6044 197 31.0047C197 29.4046 195.703 28.1079 194.103 28.1079C193.885 28.1079 193.673 28.1339 193.468 28.1798L193.11 27.1137C194.226 26.5449 195.15 26.5534 195.15 26.5534L195.497 26.7432L196.649 26.8349C195.955 26.0299 193.219 26.1735 193.219 26.1735L193.802 26.0754C193.802 26.0754 193.782 25.447 193.422 24.6745C193.062 23.9021 192.669 23.4503 192.669 23.4503C192.633 23.4909 192.61 23.5387 192.591 23.5881C192.598 23.0564 192.605 22.5246 192.646 21.9937C192.646 21.9863 192.644 21.9812 192.643 21.9745C192.656 21.9199 192.639 21.8612 192.572 21.8286C192.357 21.7236 192.146 21.6351 191.904 21.6232C191.839 21.62 191.779 21.6709 191.762 21.732C191.685 22.0082 191.665 22.2975 191.698 22.5812C191.674 22.5331 191.651 22.4852 191.625 22.4378C191.585 22.3654 191.515 22.3543 191.455 22.3767C191.387 22.3651 191.31 22.3912 191.28 22.4734C191.231 22.6061 191.126 22.6954 191.12 22.8491C191.112 23.0908 191.392 23.2478 191.57 23.3445C191.604 23.3629 191.637 23.3638 191.669 23.3578C191.756 23.7117 191.785 24.0772 191.764 24.4524C191.223 24.8031 191.432 25.123 191.432 25.123L191.334 25.2899C191.334 25.2899 190.823 24.5633 189.154 25.6435C187.484 26.7236 186.169 26.0362 185.069 25.6435C183.969 25.2506 179.924 25.1527 179.924 25.1527C181.914 25.4537 182.791 27.0902 182.791 27.0902L181.22 26.1215C180.526 26.1871 180.709 26.9202 180.709 26.9202L183.603 28.6875C184.165 28.478 184.807 29.1064 184.807 29.1064L185.409 30.1671L184.584 30.4021C184.156 29.3371 183.115 28.5845 181.897 28.5845C180.297 28.5845 179 29.8816 179 31.4812C179 33.0809 180.297 34.3777 181.897 34.3777ZM194.103 28.9967C195.21 28.9967 196.11 29.8972 196.11 31.0044C196.11 32.1114 195.21 33.0119 194.103 33.0119C192.995 33.0119 192.095 32.1114 192.095 31.0044C192.095 30.2261 192.541 29.551 193.191 29.2181L193.822 31.0985C193.863 31.2225 193.979 31.3009 194.103 31.3009C194.134 31.3009 194.165 31.2956 194.197 31.2856C194.352 31.2331 194.436 31.0653 194.384 30.9098L193.753 29.0291C193.866 29.0092 193.983 28.9967 194.103 28.9967ZM192.047 23.099C192.137 23.0285 192.224 22.9596 192.307 22.887C192.295 23.3254 192.293 23.7642 192.284 24.2028C192.205 24.2318 192.134 24.2611 192.069 24.2905C192.076 23.8946 192.028 23.5077 191.917 23.1348C191.959 23.1411 192.005 23.131 192.047 23.099ZM188.892 27.7314C190.273 27.3174 190.741 27.9407 190.888 28.2739C190.766 29.4301 190.369 30.2325 189.698 30.6519C188.819 31.2016 187.667 30.9868 187.114 30.8331C187.174 30.0212 187.469 28.1584 188.892 27.7314ZM181.897 29.4732C182.707 29.4732 183.404 29.9558 183.721 30.6473L181.547 31.2665L181.626 31.7377L183.897 31.3385C183.901 31.3857 183.904 31.4327 183.904 31.4807C183.904 32.5879 183.004 33.4884 181.897 33.4884C180.789 33.4884 179.889 32.5879 179.889 31.4807C179.889 30.3737 180.79 29.4732 181.897 29.4732Z" fill="#FE6907"/>
<path d="M190.529 28.7852H187.917L187.484 30.6314C190.116 31.1221 190.529 28.7852 190.529 28.7852Z" fill="#FE6907"/>
</g>
<path d="M298.647 57.8H307.703V59.112H303.975V69H302.375V59.112H298.647V57.8ZM309.268 61V62.808C309.54 61.528 310.404 60.824 311.412 60.824C311.716 60.824 311.908 60.888 312.148 61V62.52C311.892 62.376 311.604 62.312 311.3 62.312C310.772 62.312 309.268 62.584 309.268 65.976V69H307.716V61H309.268ZM312.843 65C312.843 62.696 314.411 60.824 316.811 60.824C317.899 60.824 318.939 61.192 319.707 62.28V61H321.259V69H319.707V67.72C318.939 68.808 317.899 69.176 316.811 69.176C314.411 69.176 312.843 67.304 312.843 65ZM319.739 65C319.739 63.384 318.619 62.2 317.003 62.2C315.339 62.2 314.395 63.48 314.395 65C314.395 66.52 315.339 67.8 317.003 67.8C318.619 67.8 319.739 66.616 319.739 65ZM329.476 69V64.488C329.476 62.792 328.692 62.2 327.844 62.2C327.012 62.2 325.268 62.776 325.268 65.288V69H323.716V61H325.268V62.6C325.604 61.448 326.628 60.824 327.956 60.824C329.684 60.824 331.028 61.912 331.028 64.488V69H329.476ZM338.349 62.728L336.973 63.032C336.717 62.312 336.221 62.152 335.725 62.152C335.005 62.152 334.541 62.6 334.541 63.176C334.541 63.704 335.005 63.96 335.501 64.136L336.653 64.52C338.173 64.984 338.573 65.928 338.573 66.776C338.573 68.296 337.245 69.176 335.693 69.176C334.269 69.176 332.989 68.44 332.605 67.08L333.981 66.744C334.173 67.384 334.893 67.848 335.709 67.848C336.525 67.848 337.085 67.384 337.085 66.76C337.085 66.2 336.637 65.944 336.077 65.752L335.005 65.384C333.725 65 333.037 64.312 333.037 63.208C333.037 61.864 334.093 60.824 335.677 60.824C336.765 60.824 337.933 61.288 338.349 62.728ZM342.035 69H340.483V61H342.035V69ZM340.179 58.424C340.179 59.048 340.627 59.496 341.251 59.496C341.875 59.496 342.339 59.048 342.339 58.424C342.339 57.8 341.875 57.336 341.251 57.336C340.627 57.336 340.179 57.8 340.179 58.424ZM346.481 62.216V66.584C346.481 67.48 346.913 67.816 347.441 67.816C347.937 67.816 348.417 67.528 348.417 66.936C348.417 66.824 348.401 66.52 348.289 66.28H349.649C349.713 66.456 349.761 66.648 349.777 66.824C349.793 66.936 349.793 67.032 349.793 67.144C349.793 68.296 348.977 69.176 347.424 69.176C346.161 69.176 344.929 68.52 344.929 66.472V62.216H343.617V61H344.929L345.281 58.696H346.481V61H349.025V62.216H346.481ZM354.762 66.376L356.266 65.992C356.474 66.936 357.45 67.752 358.858 67.752C360.33 67.752 361.226 67.016 361.226 66.04C361.226 65.144 360.49 64.616 359.578 64.28L357.898 63.704C355.69 62.984 355.306 61.688 355.306 60.712C355.306 58.792 357.002 57.624 358.906 57.624C360.906 57.624 362.234 58.728 362.57 60.28L361.13 60.712C360.858 59.576 360.058 59.064 358.906 59.064C357.834 59.064 356.922 59.656 356.922 60.68C356.922 61.176 357.066 61.768 358.378 62.28L360.074 62.92C361.914 63.48 362.794 64.76 362.794 65.928C362.794 67.912 361.242 69.176 358.89 69.176C356.666 69.176 355.146 67.928 354.762 66.376ZM364.156 65.096C364.156 62.744 365.756 60.824 368.652 60.824C369.372 60.824 370.428 60.984 371.516 61.8L370.78 62.856C369.932 62.216 368.94 62.2 368.716 62.2C366.988 62.2 365.708 63.352 365.708 65C365.708 66.648 366.988 67.8 368.716 67.8C368.94 67.8 369.932 67.784 370.78 67.144L371.516 68.2C370.428 69.016 369.372 69.176 368.652 69.176C365.82 69.176 364.156 67.352 364.156 65.096ZM372.421 65C372.421 62.696 374.309 60.824 376.613 60.824C378.933 60.824 380.821 62.696 380.821 65C380.821 67.304 378.933 69.176 376.613 69.176C374.309 69.176 372.421 67.32 372.421 65ZM373.973 65.016C373.973 66.552 375.157 67.8 376.613 67.8C378.085 67.8 379.269 66.552 379.269 65.016C379.269 63.48 378.085 62.2 376.613 62.2C375.157 62.2 373.973 63.48 373.973 65.016ZM384.222 61V62.808C384.494 61.528 385.358 60.824 386.366 60.824C386.67 60.824 386.862 60.888 387.102 61V62.52C386.846 62.376 386.558 62.312 386.254 62.312C385.726 62.312 384.222 62.584 384.222 65.976V69H382.67V61H384.222ZM394.901 66.792L395.765 67.688C394.741 68.84 393.461 69.176 392.261 69.176C389.477 69.176 387.749 67.288 387.749 65.032C387.749 62.68 389.557 60.824 392.053 60.824C394.165 60.824 396.133 62.184 396.133 65.144H389.301C389.253 66.68 390.501 67.8 392.277 67.8C393.253 67.8 394.117 67.464 394.901 66.792ZM392.085 62.184C391.157 62.184 389.957 62.552 389.445 63.944H394.533C394.101 62.488 392.965 62.184 392.085 62.184Z" fill="#061A23"/>
<circle cx="330" cy="29" r="17" fill="#F1F4F6"/>
<circle cx="330" cy="29" r="16.5" stroke="black" stroke-opacity="0.1"/>
<circle cx="362" cy="29" r="21" fill="#FAFDFF"/>
<circle cx="362" cy="29" r="20.5" stroke="black" stroke-opacity="0.1"/>
<path d="M352.159 28.86C353.199 27.32 354.659 26.88 355.999 26.88C358.619 26.88 360.919 28.72 360.919 31.56C360.919 34.26 358.839 36.22 355.859 36.22C352.299 36.22 350.179 33.42 350.179 29.32C350.179 25.14 352.279 21.78 356.099 21.78C357.859 21.78 359.219 22.48 359.999 23.34L358.699 24.52C358.159 23.88 357.079 23.54 356.119 23.54C353.859 23.54 352.159 25.58 352.159 28.86ZM352.379 31.54C352.379 33.3 353.999 34.46 355.759 34.46C357.519 34.46 358.959 33.3 358.959 31.54C358.959 29.78 357.519 28.62 355.759 28.62C353.999 28.62 352.379 29.78 352.379 31.54ZM368.297 34.5C370.457 34.5 371.917 33.34 371.917 31.9C371.917 30.56 370.717 29.36 368.377 29.36H368.217C365.857 29.36 364.677 30.56 364.677 31.9C364.677 33.34 366.137 34.5 368.297 34.5ZM368.297 36.22C365.057 36.22 362.717 34.3 362.717 31.9C362.717 30.44 363.857 29.08 365.457 28.5C364.177 27.94 363.317 26.82 363.317 25.62C363.317 23.46 365.397 21.78 368.297 21.78C371.197 21.78 373.277 23.46 373.277 25.62C373.277 26.82 372.417 27.94 371.137 28.5C372.737 29.08 373.877 30.44 373.877 31.9C373.877 34.3 371.537 36.22 368.297 36.22ZM368.297 23.5C366.457 23.5 365.277 24.42 365.277 25.62C365.277 26.74 366.217 27.92 368.217 27.92H368.357C370.317 27.92 371.317 26.74 371.317 25.62C371.317 24.42 370.137 23.5 368.297 23.5Z" fill="#00A13C"/>
<path d="M338.577 25.7507C338.495 25.65 338.372 25.5912 338.243 25.5912H336.6C336.195 24.5221 335.667 23.4746 335.066 23.0792C332.99 21.7132 327.482 21.7132 325.406 23.0792C324.805 23.475 324.279 24.5238 323.872 25.5912H322.229C322.099 25.5912 321.976 25.65 321.894 25.7507C321.812 25.8509 321.779 25.9836 321.806 26.1111L322.049 27.29C322.091 27.4909 322.268 27.6344 322.472 27.6344H322.959C322.489 28.1763 322.262 28.8586 322.258 29.5414C322.255 30.385 322.576 31.1473 323.161 31.6866C323.168 31.6922 323.174 31.6961 323.18 31.7017V33.3512C323.18 33.7086 323.471 33.9994 323.828 33.9994H325.344C325.701 33.9994 325.992 33.7086 325.992 33.3512V32.6883H334.479V33.3512C334.479 33.7086 334.77 33.9994 335.128 33.9994H336.643C337 33.9994 337.291 33.7086 337.291 33.3512V31.7341C337.912 31.165 338.209 30.3819 338.213 29.6002C338.216 28.8941 337.978 28.1867 337.48 27.6335H337.999C338.204 27.6335 338.382 27.49 338.422 27.2887L338.666 26.1102C338.691 25.9836 338.66 25.8518 338.577 25.7507ZM326.117 24.1617C327.773 23.0723 332.699 23.0723 334.353 24.1617C334.674 24.3726 335.088 25.2252 335.467 26.2693H325.004C325.382 25.2256 325.796 24.3734 326.117 24.1617ZM324.179 29.7039C324.179 28.9995 324.75 28.4291 325.454 28.4291C326.159 28.4291 326.729 28.9995 326.729 29.7039C326.729 30.4083 326.159 30.9792 325.454 30.9792C324.75 30.9792 324.179 30.4083 324.179 29.7039ZM335.034 30.9792C334.33 30.9792 333.759 30.4083 333.759 29.7039C333.759 28.9995 334.33 28.4291 335.034 28.4291C335.739 28.4291 336.309 28.9995 336.309 29.7039C336.309 30.4083 335.738 30.9792 335.034 30.9792Z" fill="#FE6907"/>
<defs>
<clipPath id="clip0_2755_28221">
<rect width="19" height="19" fill="white" transform="translate(37 19)"/>
</clipPath>
<clipPath id="clip1_2755_28221">
<rect width="18" height="18" fill="white" transform="translate(179 19)"/>
</clipPath>
</defs>
</svg>
