<svg width="1124" height="404" viewBox="0 0 1124 404" fill="none" xmlns="http://www.w3.org/2000/svg">
<g filter="url(#filter0_b_2624_30122)">
<rect width="1124" height="405" rx="10" fill="#00A13C"/>
<rect x="0.5" y="0.5" width="1123" height="404" rx="9.5" stroke="#00A13C" stroke-opacity="0.6"/>
</g>
<g opacity="0.15">
<g clip-path="url(#clip0_2624_30122)">
<mask id="mask0_2624_30122" style="mask-type:luminance" maskUnits="userSpaceOnUse" x="0" y="0" width="1124" height="436">
<path d="M1124 0H0V436H1124V0Z" fill="white"/>
</mask>
<g mask="url(#mask0_2624_30122)">
<path style="mix-blend-mode:screen" d="M1100.32 90.4309L754.792 435.957L841.115 522.28L1186.64 176.754L1100.32 90.4309Z" fill="url(#paint0_linear_2624_30122)"/>
<path style="mix-blend-mode:screen" d="M1096.65 -25.0271L832.982 238.645L919.306 324.969L1182.98 61.2965L1096.65 -25.0271Z" fill="url(#paint1_linear_2624_30122)"/>
<path style="mix-blend-mode:screen" fill-rule="evenodd" clip-rule="evenodd" d="M921.161 202.219C922.31 203.368 922.31 205.232 921.161 206.381L592.592 534.95C591.443 536.099 589.579 536.099 588.43 534.95C587.281 533.801 587.281 531.938 588.43 530.789L917 202.219C918.148 201.07 920.012 201.07 921.161 202.219Z" fill="url(#paint2_linear_2624_30122)"/>
<path style="mix-blend-mode:screen" fill-rule="evenodd" clip-rule="evenodd" d="M1172.3 114.365C1173.45 115.514 1173.45 117.378 1172.3 118.527L843.728 447.096C842.579 448.245 840.715 448.245 839.566 447.096C838.417 445.947 838.417 444.084 839.566 442.935L1168.14 114.365C1169.28 113.216 1171.15 113.216 1172.3 114.365Z" fill="url(#paint3_linear_2624_30122)"/>
<path style="mix-blend-mode:screen" fill-rule="evenodd" clip-rule="evenodd" d="M1067.66 -58.945C1068.81 -57.7961 1068.81 -55.9322 1067.66 -54.7834L739.09 273.786C737.941 274.935 736.077 274.935 734.929 273.786C733.78 272.637 733.78 270.773 734.929 269.625L1063.5 -58.945C1064.64 -60.0939 1066.51 -60.0939 1067.66 -58.945H1067.66Z" fill="url(#paint4_linear_2624_30122)"/>
<path style="mix-blend-mode:screen" d="M936.204 271.675L615.496 592.383L980.444 957.331L1301.15 636.624L936.204 271.675Z" fill="url(#paint5_linear_2624_30122)"/>
<path opacity="0.12" d="M1277.2 -86.5644L822.305 368.33L862.306 408.332L1317.2 -46.5627L1277.2 -86.5644Z" fill="url(#paint6_radial_2624_30122)"/>
<path opacity="0.12" d="M1271.09 91.2144L816.2 546.109L856.201 586.111L1311.1 131.216L1271.09 91.2144Z" fill="url(#paint7_radial_2624_30122)"/>
<path opacity="0.12" d="M856.172 112.268L816.17 152.27L1271.06 607.165L1311.07 567.163L856.172 112.268Z" fill="url(#paint8_radial_2624_30122)"/>
<path d="M926.677 312.366C928.032 312.366 929.13 311.268 929.13 309.913C929.13 308.559 928.032 307.461 926.677 307.461C925.323 307.461 924.225 308.559 924.225 309.913C924.225 311.268 925.323 312.366 926.677 312.366Z" fill="white"/>
<path d="M908.474 330.46C909.828 330.46 910.926 329.362 910.926 328.007C910.926 326.653 909.828 325.555 908.474 325.555C907.12 325.555 906.021 326.653 906.021 328.007C906.021 329.362 907.12 330.46 908.474 330.46Z" fill="white"/>
<path d="M890.271 348.772C891.626 348.772 892.724 347.674 892.724 346.319C892.724 344.965 891.626 343.867 890.271 343.867C888.917 343.867 887.819 344.965 887.819 346.319C887.819 347.674 888.917 348.772 890.271 348.772Z" fill="white"/>
<path d="M872.177 366.866C873.532 366.866 874.63 365.768 874.63 364.413C874.63 363.059 873.532 361.961 872.177 361.961C870.823 361.961 869.725 363.059 869.725 364.413C869.725 365.768 870.823 366.866 872.177 366.866Z" fill="white"/>
<path d="M853.756 385.178C855.111 385.178 856.209 384.08 856.209 382.725C856.209 381.371 855.111 380.273 853.756 380.273C852.402 380.273 851.304 381.371 851.304 382.725C851.304 384.08 852.402 385.178 853.756 385.178Z" fill="white"/>
<path d="M835.662 403.381C837.016 403.381 838.114 402.283 838.114 400.928C838.114 399.574 837.016 398.476 835.662 398.476C834.307 398.476 833.209 399.574 833.209 400.928C833.209 402.283 834.307 403.381 835.662 403.381Z" fill="white"/>
<path d="M944.989 330.678C946.344 330.678 947.442 329.58 947.442 328.225C947.442 326.871 946.344 325.773 944.989 325.773C943.635 325.773 942.537 326.871 942.537 328.225C942.537 329.58 943.635 330.678 944.989 330.678Z" fill="white"/>
<path d="M926.786 348.772C928.14 348.772 929.238 347.674 929.238 346.319C929.238 344.965 928.14 343.867 926.786 343.867C925.432 343.867 924.333 344.965 924.333 346.319C924.333 347.674 925.432 348.772 926.786 348.772Z" fill="white"/>
<path d="M908.583 367.084C909.938 367.084 911.036 365.986 911.036 364.631C911.036 363.277 909.938 362.179 908.583 362.179C907.229 362.179 906.131 363.277 906.131 364.631C906.131 365.986 907.229 367.084 908.583 367.084Z" fill="white"/>
<path d="M890.489 385.178C891.844 385.178 892.942 384.08 892.942 382.725C892.942 381.371 891.844 380.273 890.489 380.273C889.135 380.273 888.037 381.371 888.037 382.725C888.037 384.08 889.135 385.178 890.489 385.178Z" fill="white"/>
<path d="M872.177 403.49C873.532 403.49 874.63 402.392 874.63 401.037C874.63 399.683 873.532 398.585 872.177 398.585C870.823 398.585 869.725 399.683 869.725 401.037C869.725 402.392 870.823 403.49 872.177 403.49Z" fill="white"/>
<path d="M964.633 348.561C965.732 347.769 965.981 346.237 965.189 345.138C964.397 344.039 962.864 343.79 961.766 344.582C960.667 345.374 960.418 346.907 961.21 348.006C962.002 349.104 963.534 349.353 964.633 348.561Z" fill="white"/>
<path d="M946.538 366.656C947.636 365.864 947.885 364.331 947.093 363.232C946.301 362.134 944.769 361.885 943.67 362.677C942.571 363.469 942.322 365.001 943.114 366.1C943.906 367.199 945.439 367.448 946.538 366.656Z" fill="white"/>
<path d="M926.895 385.396C928.25 385.396 929.348 384.298 929.348 382.943C929.348 381.589 928.25 380.491 926.895 380.491C925.541 380.491 924.443 381.589 924.443 382.943C924.443 384.298 925.541 385.396 926.895 385.396Z" fill="white"/>
<path d="M908.801 403.49C910.156 403.49 911.254 402.392 911.254 401.037C911.254 399.683 910.156 398.585 908.801 398.585C907.447 398.585 906.349 399.683 906.349 401.037C906.349 402.392 907.447 403.49 908.801 403.49Z" fill="white"/>
<path d="M981.504 367.302C982.859 367.302 983.957 366.204 983.957 364.849C983.957 363.495 982.859 362.397 981.504 362.397C980.15 362.397 979.052 363.495 979.052 364.849C979.052 366.204 980.15 367.302 981.504 367.302Z" fill="white"/>
<path d="M963.41 385.505C964.764 385.505 965.863 384.407 965.863 383.052C965.863 381.698 964.764 380.6 963.41 380.6C962.056 380.6 960.958 381.698 960.958 383.052C960.958 384.407 962.056 385.505 963.41 385.505Z" fill="white"/>
<path d="M945.207 403.599C946.562 403.599 947.66 402.501 947.66 401.146C947.66 399.792 946.562 398.694 945.207 398.694C943.853 398.694 942.755 399.792 942.755 401.146C942.755 402.501 943.853 403.599 945.207 403.599Z" fill="white"/>
<path d="M1000.03 385.723C1001.39 385.723 1002.49 384.625 1002.49 383.27C1002.49 381.916 1001.39 380.818 1000.03 380.818C998.68 380.818 997.582 381.916 997.582 383.27C997.582 384.625 998.68 385.723 1000.03 385.723Z" fill="white"/>
<path d="M981.831 403.926C983.186 403.926 984.284 402.828 984.284 401.473C984.284 400.119 983.186 399.021 981.831 399.021C980.477 399.021 979.379 400.119 979.379 401.473C979.379 402.828 980.477 403.926 981.831 403.926Z" fill="white"/>
<path d="M1018.35 404.035C1019.7 404.035 1020.8 402.937 1020.8 401.582C1020.8 400.228 1019.7 399.13 1018.35 399.13C1016.99 399.13 1015.89 400.228 1015.89 401.582C1015.89 402.937 1016.99 404.035 1018.35 404.035Z" fill="white"/>
<path d="M798.711 2.3696C800.065 2.3696 801.163 1.27158 801.163 -0.0829003C801.163 -1.43738 800.065 -2.5354 798.711 -2.5354C797.356 -2.5354 796.258 -1.43738 796.258 -0.0829003C796.258 1.27158 797.356 2.3696 798.711 2.3696Z" fill="white"/>
<path d="M835.226 2.58762C836.58 2.58762 837.678 1.4896 837.678 0.135117C837.678 -1.21936 836.58 -2.31738 835.226 -2.31738C833.871 -2.31738 832.773 -1.21936 832.773 0.135117C832.773 1.4896 833.871 2.58762 835.226 2.58762Z" fill="white"/>
<path d="M817.023 20.6816C818.377 20.6816 819.475 19.5836 819.475 18.2291C819.475 16.8746 818.377 15.7766 817.023 15.7766C815.668 15.7766 814.57 16.8746 814.57 18.2291C814.57 19.5836 815.668 20.6816 817.023 20.6816Z" fill="white"/>
<path d="M871.741 2.69663C873.095 2.69663 874.193 1.5986 874.193 0.244126C874.193 -1.11035 873.095 -2.20837 871.741 -2.20837C870.386 -2.20837 869.288 -1.11035 869.288 0.244126C869.288 1.5986 870.386 2.69663 871.741 2.69663Z" fill="white"/>
<path d="M853.538 20.8996C854.892 20.8996 855.99 19.8016 855.99 18.4471C855.99 17.0927 854.892 15.9946 853.538 15.9946C852.183 15.9946 851.085 17.0927 851.085 18.4471C851.085 19.8016 852.183 20.8996 853.538 20.8996Z" fill="white"/>
<path d="M836.783 38.554C837.882 37.7621 838.131 36.2293 837.339 35.1305C836.547 34.0316 835.014 33.7828 833.915 34.5748C832.817 35.3667 832.568 36.8995 833.36 37.9983C834.152 39.0971 835.684 39.346 836.783 38.554Z" fill="white"/>
<path d="M908.256 2.80563C909.61 2.80563 910.708 1.70761 910.708 0.353135C910.708 -1.00134 909.61 -2.09937 908.256 -2.09937C906.901 -2.09937 905.803 -1.00134 905.803 0.353135C905.803 1.70761 906.901 2.80563 908.256 2.80563Z" fill="white"/>
<path d="M890.053 21.0086C891.407 21.0086 892.505 19.9106 892.505 18.5561C892.505 17.2017 891.407 16.1036 890.053 16.1036C888.698 16.1036 887.6 17.2017 887.6 18.5561C887.6 19.9106 888.698 21.0086 890.053 21.0086Z" fill="white"/>
<path d="M871.85 39.2116C873.204 39.2116 874.302 38.1136 874.302 36.7591C874.302 35.4047 873.204 34.3066 871.85 34.3066C870.495 34.3066 869.397 35.4047 869.397 36.7591C869.397 38.1136 870.495 39.2116 871.85 39.2116Z" fill="white"/>
<path d="M853.647 57.3056C855.001 57.3056 856.099 56.2076 856.099 54.8531C856.099 53.4987 855.001 52.4006 853.647 52.4006C852.292 52.4006 851.194 53.4987 851.194 54.8531C851.194 56.2076 852.292 57.3056 853.647 57.3056Z" fill="white"/>
<path d="M944.989 3.02365C946.343 3.02365 947.441 1.92563 947.441 0.571152C947.441 -0.783326 946.343 -1.88135 944.989 -1.88135C943.634 -1.88135 942.536 -0.783326 942.536 0.571152C942.536 1.92563 943.634 3.02365 944.989 3.02365Z" fill="white"/>
<path d="M926.677 21.3357C928.031 21.3357 929.129 20.2376 929.129 18.8832C929.129 17.5287 928.031 16.4307 926.677 16.4307C925.322 16.4307 924.224 17.5287 924.224 18.8832C924.224 20.2376 925.322 21.3357 926.677 21.3357Z" fill="white"/>
<path d="M908.474 39.5387C909.828 39.5387 910.926 38.4406 910.926 37.0862C910.926 35.7317 909.828 34.6337 908.474 34.6337C907.12 34.6337 906.021 35.7317 906.021 37.0862C906.021 38.4406 907.12 39.5387 908.474 39.5387Z" fill="white"/>
<path d="M890.271 57.6327C891.625 57.6327 892.723 56.5346 892.723 55.1802C892.723 53.8257 891.625 52.7277 890.271 52.7277C888.916 52.7277 887.818 53.8257 887.818 55.1802C887.818 56.5346 888.916 57.6327 890.271 57.6327Z" fill="white"/>
<path d="M872.177 75.8357C873.531 75.8357 874.629 74.7376 874.629 73.3832C874.629 72.0287 873.531 70.9307 872.177 70.9307C870.822 70.9307 869.724 72.0287 869.724 73.3832C869.724 74.7376 870.822 75.8357 872.177 75.8357Z" fill="white"/>
<path d="M981.504 3.13266C982.858 3.13266 983.956 2.03464 983.956 0.680161C983.956 -0.674317 982.858 -1.77234 981.504 -1.77234C980.149 -1.77234 979.051 -0.674317 979.051 0.680161C979.051 2.03464 980.149 3.13266 981.504 3.13266Z" fill="white"/>
<path d="M963.301 21.2267C964.655 21.2267 965.753 20.1286 965.753 18.7742C965.753 17.4197 964.655 16.3217 963.301 16.3217C961.946 16.3217 960.848 17.4197 960.848 18.7742C960.848 20.1286 961.946 21.2267 963.301 21.2267Z" fill="white"/>
<path d="M944.989 39.6477C946.343 39.6477 947.441 38.5497 947.441 37.1952C947.441 35.8407 946.343 34.7427 944.989 34.7427C943.634 34.7427 942.536 35.8407 942.536 37.1952C942.536 38.5497 943.634 39.6477 944.989 39.6477Z" fill="white"/>
<path d="M926.895 57.8507C928.249 57.8507 929.347 56.7527 929.347 55.3982C929.347 54.0437 928.249 52.9457 926.895 52.9457C925.54 52.9457 924.442 54.0437 924.442 55.3982C924.442 56.7527 925.54 57.8507 926.895 57.8507Z" fill="white"/>
<path d="M908.583 75.9447C909.937 75.9447 911.035 74.8467 911.035 73.4922C911.035 72.1377 909.937 71.0397 908.583 71.0397C907.228 71.0397 906.13 72.1377 906.13 73.4922C906.13 74.8467 907.228 75.9447 908.583 75.9447Z" fill="white"/>
<path d="M890.489 94.1477C891.843 94.1477 892.941 93.0497 892.941 91.6952C892.941 90.3407 891.843 89.2427 890.489 89.2427C889.134 89.2427 888.036 90.3407 888.036 91.6952C888.036 93.0497 889.134 94.1477 890.489 94.1477Z" fill="white"/>
<path d="M1017.91 3.24167C1019.26 3.24167 1020.36 2.14365 1020.36 0.78917C1020.36 -0.565308 1019.26 -1.66333 1017.91 -1.66333C1016.56 -1.66333 1015.46 -0.565308 1015.46 0.78917C1015.46 2.14365 1016.56 3.24167 1017.91 3.24167Z" fill="white"/>
<path d="M999.816 21.4447C1001.17 21.4447 1002.27 20.3467 1002.27 18.9922C1002.27 17.6377 1001.17 16.5397 999.816 16.5397C998.461 16.5397 997.363 17.6377 997.363 18.9922C997.363 20.3467 998.461 21.4447 999.816 21.4447Z" fill="white"/>
<path d="M981.613 39.5387C982.967 39.5387 984.065 38.4406 984.065 37.0862C984.065 35.7317 982.967 34.6337 981.613 34.6337C980.258 34.6337 979.16 35.7317 979.16 37.0862C979.16 38.4406 980.258 39.5387 981.613 39.5387Z" fill="white"/>
<path d="M963.301 57.8507C964.655 57.8507 965.753 56.7527 965.753 55.3982C965.753 54.0437 964.655 52.9457 963.301 52.9457C961.946 52.9457 960.848 54.0437 960.848 55.3982C960.848 56.7527 961.946 57.8507 963.301 57.8507Z" fill="white"/>
<path d="M945.207 76.1626C946.561 76.1626 947.659 75.0645 947.659 73.7101C947.659 72.3556 946.561 71.2576 945.207 71.2576C943.852 71.2576 942.754 72.3556 942.754 73.7101C942.754 75.0645 943.852 76.1626 945.207 76.1626Z" fill="white"/>
<path d="M926.895 94.2566C928.249 94.2566 929.347 93.1585 929.347 91.8041C929.347 90.4496 928.249 89.3516 926.895 89.3516C925.54 89.3516 924.442 90.4496 924.442 91.8041C924.442 93.1585 925.54 94.2566 926.895 94.2566Z" fill="white"/>
<path d="M908.801 112.46C910.155 112.46 911.253 111.362 911.253 110.007C911.253 108.653 910.155 107.555 908.801 107.555C907.446 107.555 906.348 108.653 906.348 110.007C906.348 111.362 907.446 112.46 908.801 112.46Z" fill="white"/>
<path d="M1054.42 3.45957C1055.78 3.45957 1056.88 2.36154 1056.88 1.00707C1056.88 -0.347413 1055.78 -1.44543 1054.42 -1.44543C1053.07 -1.44543 1051.97 -0.347413 1051.97 1.00707C1051.97 2.36154 1053.07 3.45957 1054.42 3.45957Z" fill="white"/>
<path d="M1036.22 21.5537C1037.58 21.5537 1038.67 20.4557 1038.67 19.1012C1038.67 17.7467 1037.58 16.6487 1036.22 16.6487C1034.87 16.6487 1033.77 17.7467 1033.77 19.1012C1033.77 20.4557 1034.87 21.5537 1036.22 21.5537Z" fill="white"/>
<path d="M1018.13 39.7566C1019.48 39.7566 1020.58 38.6585 1020.58 37.3041C1020.58 35.9496 1019.48 34.8516 1018.13 34.8516C1016.77 34.8516 1015.68 35.9496 1015.68 37.3041C1015.68 38.6585 1016.77 39.7566 1018.13 39.7566Z" fill="white"/>
<path d="M999.925 57.8507C1001.28 57.8507 1002.38 56.7527 1002.38 55.3982C1002.38 54.0437 1001.28 52.9457 999.925 52.9457C998.57 52.9457 997.472 54.0437 997.472 55.3982C997.472 56.7527 998.57 57.8507 999.925 57.8507Z" fill="white"/>
<path d="M981.613 76.1626C982.967 76.1626 984.065 75.0645 984.065 73.7101C984.065 72.3556 982.967 71.2576 981.613 71.2576C980.258 71.2576 979.16 72.3556 979.16 73.7101C979.16 75.0645 980.258 76.1626 981.613 76.1626Z" fill="white"/>
<path d="M963.519 94.4746C964.873 94.4746 965.971 93.3766 965.971 92.0221C965.971 90.6676 964.873 89.5696 963.519 89.5696C962.164 89.5696 961.066 90.6676 961.066 92.0221C961.066 93.3766 962.164 94.4746 963.519 94.4746Z" fill="white"/>
<path d="M945.207 112.569C946.561 112.569 947.659 111.471 947.659 110.116C947.659 108.762 946.561 107.664 945.207 107.664C943.852 107.664 942.754 108.762 942.754 110.116C942.754 111.471 943.852 112.569 945.207 112.569Z" fill="white"/>
<path d="M927.113 130.772C928.467 130.772 929.565 129.674 929.565 128.319C929.565 126.965 928.467 125.867 927.113 125.867C925.758 125.867 924.66 126.965 924.66 128.319C924.66 129.674 925.758 130.772 927.113 130.772Z" fill="white"/>
<path style="mix-blend-mode:screen" d="M246.885 -86.2822L-98.6406 259.243L-12.317 345.567L333.209 0.0414002L246.885 -86.2822Z" fill="url(#paint9_linear_2624_30122)"/>
<path style="mix-blend-mode:screen" d="M170.694 110.029L-92.9785 373.701L-6.65492 460.025L257.017 196.353L170.694 110.029Z" fill="url(#paint10_linear_2624_30122)"/>
<path style="mix-blend-mode:screen" fill-rule="evenodd" clip-rule="evenodd" d="M166.836 233.78C165.687 232.631 165.687 230.767 166.836 229.618L495.406 -98.9494C496.555 -100.098 498.419 -100.098 499.567 -98.9494C500.716 -97.8005 500.716 -95.9366 499.567 -94.7878L171 233.78C169.851 234.929 167.987 234.929 166.838 233.78H166.836Z" fill="url(#paint11_linear_2624_30122)"/>
<path style="mix-blend-mode:screen" fill-rule="evenodd" clip-rule="evenodd" d="M-84.2975 321.636C-85.4464 320.487 -85.4464 318.623 -84.2975 317.474L244.27 -11.0954C245.419 -12.2442 247.283 -12.2442 248.432 -11.0954C249.58 -9.94653 249.58 -8.08263 248.432 -6.93377L-80.1359 321.636C-81.2848 322.785 -83.1487 322.785 -84.2975 321.636Z" fill="url(#paint12_linear_2624_30122)"/>
<path style="mix-blend-mode:screen" fill-rule="evenodd" clip-rule="evenodd" d="M20.3426 494.944C19.1937 493.795 19.1937 491.931 20.3426 490.782L348.91 162.212C350.059 161.064 351.923 161.064 353.072 162.212C354.221 163.361 354.221 165.225 353.072 166.374L24.5042 494.944C23.3554 496.093 21.4915 496.093 20.3426 494.944Z" fill="url(#paint13_linear_2624_30122)"/>
<path style="mix-blend-mode:screen" d="M107.556 -521.335L-213.151 -200.627L151.797 164.321L472.505 -156.386L107.556 -521.335Z" fill="url(#paint14_linear_2624_30122)"/>
<path opacity="0.12" d="M225.694 27.666L-229.201 482.561L-189.199 522.562L265.696 67.6678L225.694 27.666Z" fill="url(#paint15_radial_2624_30122)"/>
<path opacity="0.12" d="M231.799 -150.112L-223.096 304.783L-183.094 344.784L271.801 -110.11L231.799 -150.112Z" fill="url(#paint16_radial_2624_30122)"/>
<path opacity="0.12" d="M-183.065 -171.167L-223.066 -131.165L231.828 323.73L271.83 283.728L-183.065 -171.167Z" fill="url(#paint17_radial_2624_30122)"/>
<path d="M161.323 128.54C162.678 128.54 163.776 127.441 163.776 126.087C163.776 124.733 162.678 123.635 161.323 123.635C159.969 123.635 158.871 124.733 158.871 126.087C158.871 127.441 159.969 128.54 161.323 128.54Z" fill="white"/>
<path d="M179.526 110.446C180.881 110.446 181.979 109.348 181.979 107.993C181.979 106.639 180.881 105.541 179.526 105.541C178.172 105.541 177.074 106.639 177.074 107.993C177.074 109.348 178.172 110.446 179.526 110.446Z" fill="white"/>
<path d="M197.729 92.1335C199.083 92.1335 200.181 91.0355 200.181 89.681C200.181 88.3265 199.083 87.2285 197.729 87.2285C196.374 87.2285 195.276 88.3265 195.276 89.681C195.276 91.0355 196.374 92.1335 197.729 92.1335Z" fill="white"/>
<path d="M215.823 74.0395C217.178 74.0395 218.276 72.9415 218.276 71.587C218.276 70.2325 217.178 69.1345 215.823 69.1345C214.469 69.1345 213.371 70.2325 213.371 71.587C213.371 72.9415 214.469 74.0395 215.823 74.0395Z" fill="white"/>
<path d="M234.244 55.7275C235.599 55.7275 236.697 54.6295 236.697 53.275C236.697 51.9205 235.599 50.8225 234.244 50.8225C232.89 50.8225 231.792 51.9205 231.792 53.275C231.792 54.6295 232.89 55.7275 234.244 55.7275Z" fill="white"/>
<path d="M252.338 37.5244C253.693 37.5244 254.791 36.4264 254.791 35.0719C254.791 33.7174 253.693 32.6194 252.338 32.6194C250.984 32.6194 249.886 33.7174 249.886 35.0719C249.886 36.4264 250.984 37.5244 252.338 37.5244Z" fill="white"/>
<path d="M270.541 19.3215C271.896 19.3215 272.994 18.2235 272.994 16.869C272.994 15.5145 271.896 14.4165 270.541 14.4165C269.187 14.4165 268.089 15.5145 268.089 16.869C268.089 18.2235 269.187 19.3215 270.541 19.3215Z" fill="white"/>
<path d="M143.011 110.228C144.366 110.228 145.464 109.129 145.464 107.775C145.464 106.421 144.366 105.323 143.011 105.323C141.657 105.323 140.559 106.421 140.559 107.775C140.559 109.129 141.657 110.228 143.011 110.228Z" fill="white"/>
<path d="M161.214 92.1335C162.569 92.1335 163.667 91.0355 163.667 89.681C163.667 88.3265 162.569 87.2285 161.214 87.2285C159.86 87.2285 158.762 88.3265 158.762 89.681C158.762 91.0355 159.86 92.1335 161.214 92.1335Z" fill="white"/>
<path d="M179.417 73.8215C180.772 73.8215 181.87 72.7235 181.87 71.369C181.87 70.0145 180.772 68.9165 179.417 68.9165C178.063 68.9165 176.965 70.0145 176.965 71.369C176.965 72.7235 178.063 73.8215 179.417 73.8215Z" fill="white"/>
<path d="M197.511 55.7275C198.866 55.7275 199.964 54.6295 199.964 53.275C199.964 51.9205 198.866 50.8225 197.511 50.8225C196.157 50.8225 195.059 51.9205 195.059 53.275C195.059 54.6295 196.157 55.7275 197.511 55.7275Z" fill="white"/>
<path d="M215.823 37.4155C217.178 37.4155 218.276 36.3175 218.276 34.963C218.276 33.6085 217.178 32.5105 215.823 32.5105C214.469 32.5105 213.371 33.6085 213.371 34.963C213.371 36.3175 214.469 37.4155 215.823 37.4155Z" fill="white"/>
<path d="M234.026 19.2124C235.381 19.2124 236.479 18.1144 236.479 16.7599C236.479 15.4054 235.381 14.3074 234.026 14.3074C232.672 14.3074 231.574 15.4054 231.574 16.7599C231.574 18.1144 232.672 19.2124 234.026 19.2124Z" fill="white"/>
<path d="M126.242 91.4592C127.341 90.6672 127.589 89.1345 126.797 88.0356C126.006 86.9368 124.473 86.688 123.374 87.4799C122.275 88.2718 122.026 89.8046 122.818 90.9035C123.61 92.0023 125.143 92.2511 126.242 91.4592Z" fill="white"/>
<path d="M144.337 73.3666C145.436 72.5747 145.685 71.0419 144.893 69.9431C144.101 68.8443 142.568 68.5954 141.469 69.3874C140.37 70.1793 140.121 71.7121 140.913 72.8109C141.705 73.9098 143.238 74.1586 144.337 73.3666Z" fill="white"/>
<path d="M161.105 55.5095C162.459 55.5095 163.557 54.4115 163.557 53.057C163.557 51.7025 162.459 50.6045 161.105 50.6045C159.75 50.6045 158.652 51.7025 158.652 53.057C158.652 54.4115 159.75 55.5095 161.105 55.5095Z" fill="white"/>
<path d="M179.199 37.4155C180.554 37.4155 181.652 36.3175 181.652 34.963C181.652 33.6085 180.554 32.5105 179.199 32.5105C177.845 32.5105 176.747 33.6085 176.747 34.963C176.747 36.3175 177.845 37.4155 179.199 37.4155Z" fill="white"/>
<path d="M197.511 19.1035C198.866 19.1035 199.964 18.0055 199.964 16.651C199.964 15.2965 198.866 14.1985 197.511 14.1985C196.157 14.1985 195.059 15.2965 195.059 16.651C195.059 18.0055 196.157 19.1035 197.511 19.1035Z" fill="white"/>
<path d="M106.496 73.6035C107.851 73.6035 108.949 72.5055 108.949 71.151C108.949 69.7965 107.851 68.6985 106.496 68.6985C105.142 68.6985 104.044 69.7965 104.044 71.151C104.044 72.5055 105.142 73.6035 106.496 73.6035Z" fill="white"/>
<path d="M124.59 55.4004C125.945 55.4004 127.043 54.3023 127.043 52.9479C127.043 51.5934 125.945 50.4954 124.59 50.4954C123.236 50.4954 122.138 51.5934 122.138 52.9479C122.138 54.3023 123.236 55.4004 124.59 55.4004Z" fill="white"/>
<path d="M142.793 37.3064C144.148 37.3064 145.246 36.2083 145.246 34.8539C145.246 33.4994 144.148 32.4014 142.793 32.4014C141.439 32.4014 140.341 33.4994 140.341 34.8539C140.341 36.2083 141.439 37.3064 142.793 37.3064Z" fill="white"/>
<path d="M160.887 19.1035C162.242 19.1035 163.34 18.0055 163.34 16.651C163.34 15.2965 162.242 14.1985 160.887 14.1985C159.533 14.1985 158.435 15.2965 158.435 16.651C158.435 18.0055 159.533 19.1035 160.887 19.1035Z" fill="white"/>
<path d="M87.9662 55.1823C89.3207 55.1823 90.4187 54.0843 90.4187 52.7298C90.4187 51.3754 89.3207 50.2773 87.9662 50.2773C86.6117 50.2773 85.5137 51.3754 85.5137 52.7298C85.5137 54.0843 86.6117 55.1823 87.9662 55.1823Z" fill="white"/>
<path d="M106.169 36.9795C107.524 36.9795 108.622 35.8814 108.622 34.527C108.622 33.1725 107.524 32.0745 106.169 32.0745C104.815 32.0745 103.717 33.1725 103.717 34.527C103.717 35.8814 104.815 36.9795 106.169 36.9795Z" fill="white"/>
<path d="M124.263 18.7763C125.618 18.7763 126.716 17.6783 126.716 16.3238C126.716 14.9694 125.618 13.8713 124.263 13.8713C122.909 13.8713 121.811 14.9694 121.811 16.3238C121.811 17.6783 122.909 18.7763 124.263 18.7763Z" fill="white"/>
<path d="M1102.47 0.573457C1103.82 0.573457 1104.92 -0.524564 1104.92 -1.87904C1104.92 -3.23352 1103.82 -4.33154 1102.47 -4.33154C1101.11 -4.33154 1100.01 -3.23352 1100.01 -1.87904C1100.01 -0.524564 1101.11 0.573457 1102.47 0.573457Z" fill="white"/>
<path d="M69.6542 36.8703C71.0086 36.8703 72.1067 35.7723 72.1067 34.4178C72.1067 33.0634 71.0086 31.9653 69.6542 31.9653C68.2997 31.9653 67.2017 33.0634 67.2017 34.4178C67.2017 35.7723 68.2997 36.8703 69.6542 36.8703Z" fill="white"/>
<path d="M87.8568 18.6675C89.2113 18.6675 90.3093 17.5694 90.3093 16.215C90.3093 14.8605 89.2113 13.7625 87.8568 13.7625C86.5023 13.7625 85.4043 14.8605 85.4043 16.215C85.4043 17.5694 86.5023 18.6675 87.8568 18.6675Z" fill="white"/>
<path d="M1065.95 0.464448C1067.31 0.464448 1068.4 -0.633573 1068.4 -1.98805C1068.4 -3.34253 1067.31 -4.44055 1065.95 -4.44055C1064.6 -4.44055 1063.5 -3.34253 1063.5 -1.98805C1063.5 -0.633573 1064.6 0.464448 1065.95 0.464448Z" fill="white"/>
<path d="M51.3421 18.5583C52.6966 18.5583 53.7946 17.4603 53.7946 16.1058C53.7946 14.7513 52.6966 13.6533 51.3421 13.6533C49.9877 13.6533 48.8896 14.7513 48.8896 16.1058C48.8896 17.4603 49.9877 18.5583 51.3421 18.5583Z" fill="white"/>
<path d="M1029.55 0.35544C1030.9 0.35544 1032 -0.742582 1032 -2.09706C1032 -3.45154 1030.9 -4.54956 1029.55 -4.54956C1028.19 -4.54956 1027.09 -3.45154 1027.09 -2.09706C1027.09 -0.742582 1028.19 0.35544 1029.55 0.35544Z" fill="white"/>
<path d="M993.03 0.137422C994.385 0.137422 995.483 -0.960599 995.483 -2.31508C995.483 -3.66956 994.385 -4.76758 993.03 -4.76758C991.676 -4.76758 990.578 -3.66956 990.578 -2.31508C990.578 -0.960599 991.676 0.137422 993.03 0.137422Z" fill="white"/>
<path d="M254.091 401.467C255.19 400.675 255.439 399.142 254.647 398.043C253.855 396.945 252.322 396.696 251.223 397.488C250.124 398.28 249.876 399.812 250.668 400.911C251.459 402.01 252.992 402.259 254.091 401.467Z" fill="white"/>
<path d="M216.15 401.692C217.504 401.692 218.603 400.594 218.603 399.239C218.603 397.885 217.504 396.787 216.15 396.787C214.796 396.787 213.698 397.885 213.698 399.239C213.698 400.594 214.796 401.692 216.15 401.692Z" fill="white"/>
<path d="M234.353 383.598C235.708 383.598 236.806 382.5 236.806 381.145C236.806 379.791 235.708 378.693 234.353 378.693C232.999 378.693 231.901 379.791 231.901 381.145C231.901 382.5 232.999 383.598 234.353 383.598Z" fill="white"/>
<path d="M179.526 401.365C180.88 401.365 181.978 400.267 181.978 398.912C181.978 397.558 180.88 396.46 179.526 396.46C178.172 396.46 177.073 397.558 177.073 398.912C177.073 400.267 178.172 401.365 179.526 401.365Z" fill="white"/>
<path d="M197.729 383.271C199.084 383.271 200.182 382.173 200.182 380.818C200.182 379.464 199.084 378.366 197.729 378.366C196.375 378.366 195.277 379.464 195.277 380.818C195.277 382.173 196.375 383.271 197.729 383.271Z" fill="white"/>
<path d="M215.823 365.068C217.178 365.068 218.276 363.97 218.276 362.616C218.276 361.261 217.178 360.163 215.823 360.163C214.469 360.163 213.371 361.261 213.371 362.616C213.371 363.97 214.469 365.068 215.823 365.068Z" fill="white"/>
<path d="M143.011 401.256C144.366 401.256 145.464 400.158 145.464 398.804C145.464 397.449 144.366 396.351 143.011 396.351C141.657 396.351 140.559 397.449 140.559 398.804C140.559 400.158 141.657 401.256 143.011 401.256Z" fill="white"/>
<path d="M161.105 383.053C162.46 383.053 163.558 381.955 163.558 380.601C163.558 379.246 162.46 378.148 161.105 378.148C159.751 378.148 158.653 379.246 158.653 380.601C158.653 381.955 159.751 383.053 161.105 383.053Z" fill="white"/>
<path d="M179.417 364.959C180.772 364.959 181.87 363.861 181.87 362.507C181.87 361.152 180.772 360.054 179.417 360.054C178.063 360.054 176.965 361.152 176.965 362.507C176.965 363.861 178.063 364.959 179.417 364.959Z" fill="white"/>
<path d="M197.511 346.756C198.866 346.756 199.964 345.658 199.964 344.304C199.964 342.949 198.866 341.851 197.511 341.851C196.157 341.851 195.059 342.949 195.059 344.304C195.059 345.658 196.157 346.756 197.511 346.756Z" fill="white"/>
<path d="M106.387 401.365C107.742 401.365 108.84 400.267 108.84 398.912C108.84 397.558 107.742 396.46 106.387 396.46C105.033 396.46 103.935 397.558 103.935 398.912C103.935 400.267 105.033 401.365 106.387 401.365Z" fill="white"/>
<path d="M124.699 383.053C126.054 383.053 127.152 381.955 127.152 380.601C127.152 379.246 126.054 378.148 124.699 378.148C123.345 378.148 122.247 379.246 122.247 380.601C122.247 381.955 123.345 383.053 124.699 383.053Z" fill="white"/>
<path d="M142.793 364.741C144.148 364.741 145.246 363.643 145.246 362.289C145.246 360.934 144.148 359.836 142.793 359.836C141.439 359.836 140.341 360.934 140.341 362.289C140.341 363.643 141.439 364.741 142.793 364.741Z" fill="white"/>
<path d="M161.105 346.647C162.46 346.647 163.558 345.549 163.558 344.195C163.558 342.84 162.46 341.742 161.105 341.742C159.751 341.742 158.653 342.84 158.653 344.195C158.653 345.549 159.751 346.647 161.105 346.647Z" fill="white"/>
<path d="M179.199 328.444C180.554 328.444 181.652 327.346 181.652 325.992C181.652 324.637 180.554 323.539 179.199 323.539C177.845 323.539 176.747 324.637 176.747 325.992C176.747 327.346 177.845 328.444 179.199 328.444Z" fill="white"/>
<path d="M69.8722 401.147C71.2267 401.147 72.3247 400.049 72.3247 398.695C72.3247 397.34 71.2267 396.242 69.8722 396.242C68.5177 396.242 67.4197 397.34 67.4197 398.695C67.4197 400.049 68.5177 401.147 69.8722 401.147Z" fill="white"/>
<path d="M88.0751 383.053C89.4295 383.053 90.5276 381.955 90.5276 380.601C90.5276 379.246 89.4295 378.148 88.0751 378.148C86.7206 378.148 85.6226 379.246 85.6226 380.601C85.6226 381.955 86.7206 383.053 88.0751 383.053Z" fill="white"/>
<path d="M106.387 364.741C107.742 364.741 108.84 363.643 108.84 362.289C108.84 360.934 107.742 359.836 106.387 359.836C105.033 359.836 103.935 360.934 103.935 362.289C103.935 363.643 105.033 364.741 106.387 364.741Z" fill="white"/>
<path d="M124.481 346.429C125.835 346.429 126.933 345.331 126.933 343.976C126.933 342.622 125.835 341.524 124.481 341.524C123.126 341.524 122.028 342.622 122.028 343.976C122.028 345.331 123.126 346.429 124.481 346.429Z" fill="white"/>
<path d="M142.793 328.335C144.148 328.335 145.246 327.237 145.246 325.883C145.246 324.528 144.148 323.43 142.793 323.43C141.439 323.43 140.341 324.528 140.341 325.883C140.341 327.237 141.439 328.335 142.793 328.335Z" fill="white"/>
<path d="M160.887 310.132C162.242 310.132 163.34 309.034 163.34 307.68C163.34 306.325 162.242 305.227 160.887 305.227C159.533 305.227 158.435 306.325 158.435 307.68C158.435 309.034 159.533 310.132 160.887 310.132Z" fill="white"/>
</g>
</g>
</g>
<path d="M513.491 299.58C510.611 299.58 508.271 301.98 508.271 305.02C508.271 307.74 510.091 310.42 513.771 310.42C515.051 310.42 516.111 310.1 517.071 309.48V306.62H513.131V305H518.891V310.26C517.111 311.88 515.051 312.22 513.671 312.22C509.371 312.22 506.231 308.98 506.231 305.04C506.231 301 509.491 297.78 513.491 297.78C515.471 297.78 517.071 298.18 518.591 299.32L517.811 300.86C515.831 299.58 514.711 299.58 513.491 299.58ZM529.738 309.24L530.818 310.36C529.538 311.8 527.938 312.22 526.438 312.22C522.958 312.22 520.798 309.86 520.798 307.04C520.798 304.1 523.058 301.78 526.178 301.78C528.818 301.78 531.278 303.48 531.278 307.18H522.738C522.678 309.1 524.238 310.5 526.458 310.5C527.678 310.5 528.758 310.08 529.738 309.24ZM526.218 303.48C525.058 303.48 523.558 303.94 522.918 305.68H529.278C528.738 303.86 527.318 303.48 526.218 303.48ZM535.794 303.52V308.98C535.794 310.1 536.334 310.52 536.994 310.52C537.614 310.52 538.214 310.16 538.214 309.42C538.214 309.28 538.194 308.9 538.054 308.6H539.754C539.834 308.82 539.894 309.06 539.914 309.28C539.934 309.42 539.934 309.54 539.934 309.68C539.934 311.12 538.914 312.22 536.974 312.22C535.394 312.22 533.854 311.4 533.854 308.84V303.52H532.214V302H533.854L534.294 299.12H535.794V302H538.974V303.52H535.794ZM546.146 308.72L548.026 308.24C548.286 309.42 549.506 310.44 551.266 310.44C553.106 310.44 554.226 309.52 554.226 308.3C554.226 307.18 553.306 306.52 552.166 306.1L550.066 305.38C547.306 304.48 546.826 302.86 546.826 301.64C546.826 299.24 548.946 297.78 551.326 297.78C553.826 297.78 555.486 299.16 555.906 301.1L554.106 301.64C553.766 300.22 552.766 299.58 551.326 299.58C549.986 299.58 548.846 300.32 548.846 301.6C548.846 302.22 549.026 302.96 550.666 303.6L552.786 304.4C555.086 305.1 556.186 306.7 556.186 308.16C556.186 310.64 554.246 312.22 551.306 312.22C548.526 312.22 546.626 310.66 546.146 308.72ZM560.95 303.52V308.98C560.95 310.1 561.49 310.52 562.15 310.52C562.77 310.52 563.37 310.16 563.37 309.42C563.37 309.28 563.35 308.9 563.21 308.6H564.91C564.99 308.82 565.05 309.06 565.07 309.28C565.09 309.42 565.09 309.54 565.09 309.68C565.09 311.12 564.07 312.22 562.13 312.22C560.55 312.22 559.01 311.4 559.01 308.84V303.52H557.37V302H559.01L559.45 299.12H560.95V302H564.13V303.52H560.95ZM566.169 307C566.169 304.12 568.129 301.78 571.129 301.78C572.489 301.78 573.789 302.24 574.749 303.6V302H576.689V312H574.749V310.4C573.789 311.76 572.489 312.22 571.129 312.22C568.129 312.22 566.169 309.88 566.169 307ZM574.789 307C574.789 304.98 573.389 303.5 571.369 303.5C569.289 303.5 568.109 305.1 568.109 307C568.109 308.9 569.289 310.5 571.369 310.5C573.389 310.5 574.789 309.02 574.789 307ZM581.701 302V304.26C582.041 302.66 583.121 301.78 584.381 301.78C584.761 301.78 585.001 301.86 585.301 302V303.9C584.981 303.72 584.621 303.64 584.241 303.64C583.581 303.64 581.701 303.98 581.701 308.22V312H579.761V302H581.701ZM589.505 303.52V308.98C589.505 310.1 590.045 310.52 590.705 310.52C591.325 310.52 591.925 310.16 591.925 309.42C591.925 309.28 591.905 308.9 591.765 308.6H593.465C593.545 308.82 593.605 309.06 593.625 309.28C593.645 309.42 593.645 309.54 593.645 309.68C593.645 311.12 592.625 312.22 590.685 312.22C589.105 312.22 587.565 311.4 587.565 308.84V303.52H585.925V302H587.565L588.005 299.12H589.505V302H592.685V303.52H589.505ZM603.644 309.24L604.724 310.36C603.444 311.8 601.844 312.22 600.344 312.22C596.864 312.22 594.704 309.86 594.704 307.04C594.704 304.1 596.964 301.78 600.084 301.78C602.724 301.78 605.184 303.48 605.184 307.18H596.644C596.584 309.1 598.144 310.5 600.364 310.5C601.584 310.5 602.664 310.08 603.644 309.24ZM600.124 303.48C598.964 303.48 597.464 303.94 596.824 305.68H603.184C602.644 303.86 601.224 303.48 600.124 303.48ZM606.638 307C606.638 304.12 608.598 301.78 611.598 301.78C612.958 301.78 614.258 302.24 615.218 303.6V297.54H617.158V312H615.218V310.4C614.258 311.76 612.958 312.22 611.598 312.22C608.598 312.22 606.638 309.88 606.638 307ZM615.258 307C615.258 304.98 613.858 303.5 611.838 303.5C609.758 303.5 608.578 305.1 608.578 307C608.578 308.9 609.758 310.5 611.838 310.5C613.858 310.5 615.258 309.02 615.258 307Z" fill="#00A13C"/>
<defs>
<filter id="filter0_b_2624_30122" x="-17" y="-17" width="1158" height="439" filterUnits="userSpaceOnUse" color-interpolation-filters="sRGB">
<feFlood flood-opacity="0" result="BackgroundImageFix"/>
<feGaussianBlur in="BackgroundImageFix" stdDeviation="8.5"/>
<feComposite in2="SourceAlpha" operator="in" result="effect1_backgroundBlur_2624_30122"/>
<feBlend mode="normal" in="SourceGraphic" in2="effect1_backgroundBlur_2624_30122" result="shape"/>
</filter>
<linearGradient id="paint0_linear_2624_30122" x1="1144.27" y1="131.922" x2="798.739" y2="477.447" gradientUnits="userSpaceOnUse">
<stop stop-color="white"/>
<stop offset="1"/>
</linearGradient>
<linearGradient id="paint1_linear_2624_30122" x1="1137.35" y1="20.4562" x2="873.678" y2="284.129" gradientUnits="userSpaceOnUse">
<stop stop-color="white"/>
<stop offset="1"/>
</linearGradient>
<linearGradient id="paint2_linear_2624_30122" x1="919.867" y1="203.443" x2="587.136" y2="536.175" gradientUnits="userSpaceOnUse">
<stop stop-color="white"/>
<stop offset="1"/>
</linearGradient>
<linearGradient id="paint3_linear_2624_30122" x1="1174.2" y1="112.525" x2="841.466" y2="445.256" gradientUnits="userSpaceOnUse">
<stop stop-color="white"/>
<stop offset="1"/>
</linearGradient>
<linearGradient id="paint4_linear_2624_30122" x1="1070.57" y1="-61.8931" x2="737.842" y2="270.838" gradientUnits="userSpaceOnUse">
<stop stop-color="white"/>
<stop offset="1"/>
</linearGradient>
<linearGradient id="paint5_linear_2624_30122" x1="1137.6" y1="794.957" x2="772.651" y2="430.008" gradientUnits="userSpaceOnUse">
<stop stop-color="white"/>
<stop offset="1"/>
</linearGradient>
<radialGradient id="paint6_radial_2624_30122" cx="0" cy="0" r="1" gradientUnits="userSpaceOnUse" gradientTransform="translate(1051.09 141.158) rotate(135) scale(314.535 36.8109)">
<stop/>
<stop offset="1" stop-color="white" stop-opacity="0"/>
</radialGradient>
<radialGradient id="paint7_radial_2624_30122" cx="0" cy="0" r="1" gradientUnits="userSpaceOnUse" gradientTransform="translate(1045.03 318.853) rotate(135) scale(314.535 36.8109)">
<stop/>
<stop offset="1" stop-color="white" stop-opacity="0"/>
</radialGradient>
<radialGradient id="paint8_radial_2624_30122" cx="0" cy="0" r="1" gradientUnits="userSpaceOnUse" gradientTransform="translate(1044.8 379.192) rotate(-135) scale(314.535 36.8109)">
<stop/>
<stop offset="1" stop-color="white" stop-opacity="0"/>
</radialGradient>
<linearGradient id="paint9_linear_2624_30122" x1="-56.4561" y1="303.099" x2="289.069" y2="-42.4267" gradientUnits="userSpaceOnUse">
<stop stop-color="white"/>
<stop offset="1"/>
</linearGradient>
<linearGradient id="paint10_linear_2624_30122" x1="-48.8163" y1="414.842" x2="214.856" y2="151.17" gradientUnits="userSpaceOnUse">
<stop stop-color="white"/>
<stop offset="1"/>
</linearGradient>
<linearGradient id="paint11_linear_2624_30122" x1="167.448" y1="233.133" x2="500.179" y2="-99.5979" gradientUnits="userSpaceOnUse">
<stop stop-color="white"/>
<stop offset="1"/>
</linearGradient>
<linearGradient id="paint12_linear_2624_30122" x1="-86.7994" y1="324.135" x2="245.932" y2="-8.59651" gradientUnits="userSpaceOnUse">
<stop stop-color="white"/>
<stop offset="1"/>
</linearGradient>
<linearGradient id="paint13_linear_2624_30122" x1="23.3967" y1="491.815" x2="356.128" y2="159.084" gradientUnits="userSpaceOnUse">
<stop stop-color="white"/>
<stop offset="1"/>
</linearGradient>
<linearGradient id="paint14_linear_2624_30122" x1="-51.6507" y1="-357.827" x2="313.298" y2="7.12132" gradientUnits="userSpaceOnUse">
<stop stop-color="white"/>
<stop offset="1"/>
</linearGradient>
<radialGradient id="paint15_radial_2624_30122" cx="0" cy="0" r="1" gradientUnits="userSpaceOnUse" gradientTransform="translate(36.85 294.882) rotate(-45) scale(314.535 36.8109)">
<stop/>
<stop offset="1" stop-color="white" stop-opacity="0"/>
</radialGradient>
<radialGradient id="paint16_radial_2624_30122" cx="0" cy="0" r="1" gradientUnits="userSpaceOnUse" gradientTransform="translate(42.9143 117.187) rotate(-45) scale(314.535 36.8109)">
<stop/>
<stop offset="1" stop-color="white" stop-opacity="0"/>
</radialGradient>
<radialGradient id="paint17_radial_2624_30122" cx="0" cy="0" r="1" gradientUnits="userSpaceOnUse" gradientTransform="translate(43.5689 56.9896) rotate(45) scale(314.535 36.8109)">
<stop/>
<stop offset="1" stop-color="white" stop-opacity="0"/>
</radialGradient>
<clipPath id="clip0_2624_30122">
<rect width="1124" height="404" rx="10" fill="white"/>
</clipPath>
</defs>
</svg>
