<svg width="38" height="38" viewBox="-2 0 25 25" fill="green" xmlns="http://www.w3.org/2000/svg">
    <path d="M8.14369 12.6928L6.75204 19.9973C6.68057 20.4036 6.91477 20.8016 7.30466 20.9364C7.74294 21.0879 8.22099 20.8554 8.37248 20.4172L9.96144 15.6503L9.8313 15.2053L8.14369 12.6928Z" />
    <path d="M10.3056 3.77823C11.349 3.77823 12.1947 2.93245 12.1947 1.88912C12.1947 0.845786 11.349 0 10.3056 0C9.26229 0 8.4165 0.845786 8.4165 1.88912C8.4165 2.93245 9.26229 3.77823 10.3056 3.77823Z" />
    <path d="M16.126 9.52114V9.52954H16.1134C15.2382 9.02578 14.6147 8.15888 13.9641 7.12197C13.6254 6.54001 13.2444 5.98367 12.8243 5.45744C12.5552 5.13876 12.2388 4.86337 11.886 4.64093C11.6845 4.51666 11.4698 4.41533 11.2458 4.33867C11.0085 4.26583 10.7632 4.22212 10.5154 4.20853C10.3993 4.20055 10.283 4.20055 10.1669 4.20853C10.0537 4.21162 9.94081 4.22212 9.82899 4.24001C9.60061 4.27171 9.37618 4.32728 9.1594 4.40584C8.74909 4.56153 8.37012 4.78975 8.04062 5.07962C7.75636 5.33297 7.49829 5.61429 7.27028 5.91923C7.06038 6.2005 6.86517 6.48176 6.69305 6.75884C6.00038 7.85662 5.45253 8.87884 4.69689 9.67017C4.35317 9.98319 4.32825 10.5156 4.64126 10.8593C4.95428 11.203 5.48664 11.2279 5.83036 10.9149C6.36377 10.4747 6.84476 9.97464 7.26399 9.42459C7.6733 8.89774 8.02803 8.36249 8.37437 7.87132L8.41635 7.80834V11.3347C8.41514 11.5036 8.46489 11.6689 8.55908 11.8091L10.6014 14.8506L12.2303 20.3941C12.3595 20.8394 12.8252 21.0957 13.2705 20.9665C13.673 20.8498 13.9278 20.454 13.8675 20.0393L13.1769 15.2116C13.1725 15.1798 13.1661 15.1482 13.158 15.1171L12.1946 11.4354V8.07702L12.2995 8.22605C12.6799 8.78822 13.1083 9.31638 13.5799 9.80451C14.1018 10.3336 14.7241 10.7533 15.4103 11.0387C15.8371 11.2199 16.33 11.0207 16.5112 10.5939C16.6823 10.1906 16.5146 9.72349 16.126 9.52114Z" />
</svg>
