<svg width="23" height="30" viewBox="0 0 23 30" fill="none" xmlns="http://www.w3.org/2000/svg">
<path d="M3 14.5C2.72386 14.5 2.5 14.7239 2.5 15C2.5 15.2761 2.72386 15.5 3 15.5V14.5ZM17.3333 15C17.3333 16.4728 18.5272 17.6667 20 17.6667C21.4728 17.6667 22.6667 16.4728 22.6667 15C22.6667 13.5272 21.4728 12.3333 20 12.3333C18.5272 12.3333 17.3333 13.5272 17.3333 15ZM4.41667 15.5C4.69281 15.5 4.91667 15.2761 4.91667 15C4.91667 14.7239 4.69281 14.5 4.41667 14.5V15.5ZM7.25 14.5C6.97386 14.5 6.75 14.7239 6.75 15C6.75 15.2761 6.97386 15.5 7.25 15.5V14.5ZM10.0833 15.5C10.3595 15.5 10.5833 15.2761 10.5833 15C10.5833 14.7239 10.3595 14.5 10.0833 14.5V15.5ZM12.9167 14.5C12.6405 14.5 12.4167 14.7239 12.4167 15C12.4167 15.2761 12.6405 15.5 12.9167 15.5V14.5ZM15.75 15.5C16.0261 15.5 16.25 15.2761 16.25 15C16.25 14.7239 16.0261 14.5 15.75 14.5V15.5ZM18.5833 14.5C18.3072 14.5 18.0833 14.7239 18.0833 15C18.0833 15.2761 18.3072 15.5 18.5833 15.5V14.5ZM3 15.5H4.41667V14.5H3V15.5ZM7.25 15.5H10.0833V14.5H7.25V15.5ZM12.9167 15.5H15.75V14.5H12.9167V15.5ZM18.5833 15.5H20V14.5H18.5833V15.5Z" fill="#EC2B1E" fill-opacity="0.6"/>
<rect width="4" height="30" rx="2" fill="#EC2B1E"/>
</svg>
