<svg width="17" height="15" viewBox="0 0 17 15" fill="none" xmlns="http://www.w3.org/2000/svg">
<path d="M12.2188 0.132813C12.8931 0.13271 13.5423 0.386664 14.0346 0.843165C14.5269 1.29967 14.8254 1.92453 14.8697 2.59101L14.875 2.76359V5.44699C15.4443 5.56231 15.9598 5.85929 16.3424 6.29243C16.7251 6.72558 16.9538 7.27102 16.9936 7.84521L17 8.02515V14.339C17.0002 14.4705 16.9508 14.5973 16.8613 14.6945C16.7719 14.7916 16.649 14.8521 16.5168 14.864C16.3845 14.8759 16.2526 14.8383 16.147 14.7587C16.0414 14.679 15.9697 14.5631 15.946 14.4337L15.9375 14.339V11.7082H1.0625V14.339C1.06274 14.4705 1.01328 14.5973 0.923835 14.6945C0.834395 14.7916 0.711464 14.8521 0.579252 14.864C0.44704 14.8759 0.315127 14.8383 0.209491 14.7587C0.103855 14.679 0.0321515 14.5631 0.00849995 14.4337L5.53713e-08 14.339V8.02515C-0.000124924 7.41868 0.211322 6.83078 0.598556 6.36097C0.98579 5.89116 1.52503 5.56828 2.125 5.44699V2.76359C2.1249 2.09567 2.38131 1.45272 2.84223 0.965144C3.30315 0.477572 3.93406 0.18189 4.607 0.138074L4.78125 0.132813H12.2188ZM14.3438 6.44668H2.65625C2.26023 6.44668 1.87839 6.5927 1.58514 6.85629C1.29188 7.11989 1.10822 7.48218 1.06994 7.87257L1.0625 8.02515V10.6559H15.9375V8.02515C15.9375 7.63293 15.7901 7.25475 15.5239 6.96431C15.2578 6.67386 14.892 6.49196 14.4978 6.45405L14.3438 6.44668ZM12.2188 1.18512H4.78125C4.38506 1.18514 4.00308 1.33131 3.7098 1.59512C3.41653 1.85894 3.23297 2.22148 3.19494 2.61206L3.1875 2.76359V5.39437H4.25V4.86822C4.25 4.72867 4.30597 4.59484 4.4056 4.49617C4.50523 4.39749 4.64035 4.34206 4.78125 4.34206H7.4375C7.5784 4.34206 7.71352 4.39749 7.81315 4.49617C7.91278 4.59484 7.96875 4.72867 7.96875 4.86822V5.39437H9.03125V4.86822C9.03125 4.72867 9.08722 4.59484 9.18685 4.49617C9.28648 4.39749 9.4216 4.34206 9.5625 4.34206H12.2188C12.3596 4.34206 12.4948 4.39749 12.5944 4.49617C12.694 4.59484 12.75 4.72867 12.75 4.86822V5.39437H13.8125V2.76359C13.8125 2.37137 13.6651 1.99319 13.3989 1.70275C13.1328 1.41231 12.767 1.23041 12.3728 1.19249L12.2188 1.18512Z" fill="#061A23"/>
</svg>
