<svg width="34" height="34" viewBox="0 0 34 34" fill="none" xmlns="http://www.w3.org/2000/svg">
<path d="M6.85091 31.931C7.05514 32.1386 7.29886 32.3032 7.56772 32.4152C7.83657 32.5271 8.12511 32.584 8.41633 32.5827C8.77626 32.5825 9.13073 32.4947 9.44913 32.3269C9.76754 32.159 10.0403 31.9162 10.2438 31.6193C12.4983 28.3183 14.9937 25.1883 17.7097 22.2552L11.7455 16.291C8.8109 19.0053 5.68111 21.5006 2.38133 23.7568C2.08491 23.9608 1.8424 24.2337 1.67461 24.552C1.50682 24.8703 1.41876 25.2245 1.41799 25.5843C1.41664 25.8756 1.4736 26.1641 1.58552 26.433C1.69744 26.7018 1.86206 26.9455 2.06966 27.1498L6.85091 31.931Z" fill="#00A13C"/>
<path d="M21.2515 18.6929L15.3085 12.75C14.4798 13.6212 13.6369 14.4642 12.7656 15.2929L18.6944 21.25C19.5231 20.3646 20.366 19.5217 21.2515 18.6929Z" fill="#00A13C"/>
<path d="M27.1517 2.06774C26.948 1.85949 26.7043 1.69445 26.4354 1.58248C26.1664 1.47051 25.8776 1.41392 25.5863 1.41608C25.2265 1.41685 24.8722 1.50491 24.5539 1.67269C24.2356 1.84048 23.9628 2.08299 23.7588 2.37941C21.5026 5.67919 19.0073 8.80898 16.293 11.7436L22.2571 17.7077C25.1903 14.9918 28.3202 12.4964 31.6213 10.2419C31.8901 10.0584 32.1151 9.81772 32.2802 9.53714C32.4452 9.25656 32.5462 8.94298 32.576 8.61883C32.6058 8.29468 32.5636 7.96795 32.4524 7.662C32.3412 7.35605 32.1639 7.07843 31.933 6.84899L27.1517 2.06774Z" fill="#00A13C"/>
<path d="M16.5471 25.7118L16.2921 28.2618C16.2726 28.4003 16.2944 28.5414 16.3549 28.6675C16.4154 28.7935 16.5119 28.8988 16.6321 28.9702C16.747 29.0243 16.8737 29.0486 17.0005 29.041C17.1393 29.0399 17.2748 28.998 17.39 28.9206L19.1255 27.766L20.8609 28.9206C20.9758 28.9953 21.1099 29.035 21.2469 29.035C21.384 29.035 21.5181 28.9953 21.633 28.9206C21.7493 28.8464 21.8415 28.7398 21.8981 28.614C21.9547 28.4882 21.9733 28.3485 21.9517 28.2122L20.7688 21.1289C19.3049 22.5928 17.8977 24.1204 16.5471 25.7118Z" fill="#00A13C"/>
<path d="M28.9453 16.6302C28.8739 16.5099 28.7686 16.4135 28.6426 16.353C28.5165 16.2925 28.3754 16.2706 28.2369 16.2902L25.6869 16.5452C24.1003 17.9005 22.5679 19.3053 21.0898 20.7598L28.1732 21.9498C28.3095 21.9714 28.4491 21.9528 28.5749 21.8961C28.7008 21.8395 28.8073 21.7474 28.8815 21.631C28.9562 21.5161 28.996 21.382 28.996 21.245C28.996 21.1079 28.9562 20.9738 28.8815 20.8589L27.7694 19.1235L28.924 17.3881C28.999 17.2768 29.0408 17.1464 29.0446 17.0122C29.0483 16.878 29.0139 16.7455 28.9453 16.6302Z" fill="#00A13C"/>
</svg>
