<svg width="38" height="38" viewBox="0 0 38 38" fill="none" xmlns="http://www.w3.org/2000/svg">
<path d="M14.4621 32.8915V28.0501C14.4621 26.8142 15.4713 25.8123 16.7162 25.8123H21.267C21.8648 25.8123 22.4382 26.0481 22.8609 26.4677C23.2836 26.8874 23.5211 27.4566 23.5211 28.0501V32.8915C23.5173 33.4053 23.7203 33.8993 24.085 34.2639C24.4496 34.6286 24.9458 34.8337 25.4634 34.8337H28.5681C30.0181 34.8374 31.4101 34.2682 32.4367 33.2516C33.4634 32.235 34.0404 30.8547 34.0404 29.4152V15.6229C34.0404 14.4601 33.5211 13.3571 32.6227 12.6111L22.0609 4.23712C20.2237 2.76888 17.5913 2.81629 15.8089 4.34971L5.48813 12.6111C4.5472 13.3351 3.98482 14.4413 3.95703 15.6229V29.4011C3.95703 32.4014 6.40705 34.8337 9.42931 34.8337H12.4632C13.5381 34.8337 14.4118 33.9727 14.4196 32.9055L14.4621 32.8915Z" fill="#00A13C"/>
</svg>
