<svg width="16" height="16" viewBox="0 0 16 16" fill="none" xmlns="http://www.w3.org/2000/svg">
<g clip-path="url(#clip0_2077_23052)">
<path d="M15.904 7.90314L14.1061 6.10526V2.4432H10.444L8.00083 0L0.0976562 7.90314L1.89554 9.70103V16H14.1061V9.70107L15.904 7.90314ZM8.00083 1.32835L11.2883 4.61579V3.38247H13.1668V6.49433L14.5757 7.90318L13.9117 8.56718L8.00083 2.65638L2.09004 8.56718L1.426 7.90314L8.00083 1.32835ZM6.59193 15.0607V11.3036H9.40974V15.0607H6.59193ZM10.349 15.0607V10.3644H5.65266V15.0607H2.83485V9.15071L8.00083 3.98473L13.1668 9.15071V15.0608H10.349V15.0607Z" fill="#061A23"/>
</g>
<defs>
<clipPath id="clip0_2077_23052">
<rect width="16" height="16" fill="white"/>
</clipPath>
</defs>
</svg>
