<svg width="34" height="34" viewBox="0 0 34 34" fill="none" xmlns="http://www.w3.org/2000/svg">
<path d="M29 6.03449C28.9958 5.98893 6.01615 5.98813 6.00012 6.03436L6 7H29V6.03449Z" fill="#00A13C"/>
<path d="M10.1694 14.9316L14.152 14.305C14.2232 14.2923 20.0521 13.9778 20.1229 13.97C20.5636 13.9483 21.0043 14.0119 21.4184 14.1572C21.8326 14.3024 22.2115 14.5262 22.5324 14.815C22.8533 15.1039 23.1094 15.4517 23.2853 15.8376C23.4612 16.2235 23.5533 16.6394 23.5559 17.0602C23.6174 17.7031 23.0302 18.4729 23.9241 17.6274L27.1872 14.5157C28.3696 12.8976 29.0024 10.9722 29 9H6C6.00324 11.354 6.91006 13.6254 8.54926 15.3854C9.06761 15.171 9.61182 15.0186 10.1694 14.9316Z" fill="#00A13C"/>
<path d="M32.4086 13.5767C32.0237 13.2066 31.5109 13 30.9775 13C30.4441 13 29.9313 13.2066 29.5464 13.5767L24.8839 18.2476C23.9167 19.2143 22.6641 19.8428 21.312 20.0397L20.8734 20.1091L14.8606 20.9935C14.7854 21.0042 14.7088 21 14.6352 20.9809C14.5616 20.9619 14.4925 20.9285 14.4319 20.8826C14.3712 20.8367 14.3202 20.7792 14.2818 20.7135C14.2434 20.6478 14.2184 20.5752 14.2081 20.4997C14.1979 20.4243 14.2026 20.3476 14.222 20.274C14.2414 20.2003 14.2752 20.1313 14.3214 20.0708C14.3675 20.0104 14.4252 19.9596 14.491 19.9215C14.5568 19.8834 14.6295 19.8588 14.7048 19.8489C14.7999 19.8342 15.1915 19.7844 15.2818 19.7622L20.7003 18.9645C23.3776 18.5083 22.9879 14.5617 20.2617 14.675L14.2721 15.0219L10.25 15.6867C9.02633 15.8879 7.89627 16.4681 7.01858 17.3458L1 23.381L7.40522 28C7.90746 27.5537 8.52215 27.2538 9.18253 27.1329L22.3622 25.0286C23.5078 24.839 24.5664 24.2976 25.3917 23.4793L32.4086 16.444C32.7873 16.0633 33 15.5478 33 15.0103C33 14.4728 32.7873 13.9573 32.4086 13.5767Z" fill="#00A13C"/>
</svg>
