<svg width="30" height="30" viewBox="0 0 30 30" fill="none" xmlns="http://www.w3.org/2000/svg">
<path d="M12.7833 4.03657C13.7437 2.28771 16.2563 2.28771 17.2167 4.03657C17.8272 5.14829 19.1668 5.63584 20.3491 5.17665C22.2089 4.45428 24.1337 6.06936 23.7453 8.0264C23.4983 9.27046 24.2111 10.505 25.4119 10.9132C27.301 11.5553 27.7373 14.0298 26.1818 15.2793C25.193 16.0735 24.9454 17.4774 25.603 18.562C26.6373 20.2681 25.381 22.4441 23.3863 22.4014C22.1182 22.3743 21.0262 23.2906 20.8327 24.5441C20.5284 26.516 18.1673 27.3753 16.6667 26.0604C15.7128 25.2246 14.2872 25.2246 13.3333 26.0604C11.8327 27.3753 9.47159 26.516 9.16725 24.5441C8.97379 23.2906 7.88178 22.3743 6.61375 22.4014C4.61899 22.4441 3.36267 20.2681 4.39703 18.562C5.05455 17.4774 4.80701 16.0735 3.8182 15.2793C2.26268 14.0298 2.69899 11.5553 4.58806 10.9132C5.7889 10.505 6.50166 9.27046 6.25474 8.0264C5.8663 6.06936 7.79109 4.45427 9.65095 5.17665C10.8332 5.63584 12.1728 5.14829 12.7833 4.03657Z" fill="#FE6907"/>
<path d="M10 15.3333L13.3294 18.6667L20 12" stroke="white" stroke-width="2" stroke-linecap="round" stroke-linejoin="round"/>
</svg>
