<svg width="17" height="20" viewBox="0 0 17 20" fill="none" xmlns="http://www.w3.org/2000/svg">
<path fill-rule="evenodd" clip-rule="evenodd" d="M8.5 0C13.1868 0 17 3.82462 17 8.52615C17 14.3056 10.3484 20 8.5 20C6.65164 20 0 14.3056 0 8.52615C0 3.82462 3.81315 0 8.5 0ZM8.5 1.53846C4.66521 1.53846 1.54545 4.67385 1.54545 8.52615C1.54545 13.4277 7.33988 18.2031 8.5 18.4574C9.66012 18.2021 15.4545 13.4267 15.4545 8.52615C15.4545 4.67385 12.3348 1.53846 8.5 1.53846ZM8.50103 5.12821C10.3473 5.12821 11.8495 6.62359 11.8495 8.46256C11.8495 10.3005 10.3473 11.7949 8.50103 11.7949C6.65473 11.7949 5.15255 10.3005 5.15255 8.46256C5.15255 6.62359 6.65473 5.12821 8.50103 5.12821ZM8.50103 6.66667C7.50679 6.66667 6.698 7.4718 6.698 8.46256C6.698 9.45231 7.50679 10.2564 8.50103 10.2564C9.49527 10.2564 10.3041 9.45231 10.3041 8.46256C10.3041 7.4718 9.49527 6.66667 8.50103 6.66667Z" fill="#061A23"/>
</svg>
