<svg width="64" height="64" viewBox="0 0 64 64" fill="none" xmlns="http://www.w3.org/2000/svg">
<rect width="64" height="64" rx="6" fill="#F1F4F6"/>
<g clip-path="url(#clip0_1684_75936)">
<path d="M40.713 15.6091C40.7753 17.9872 38.1705 20.0532 36.1662 21.0049C35.1096 20.5337 32.7885 19.0113 32.052 17.3797C31.7719 16.8313 31.6243 16.2249 31.6211 15.6091C31.6226 15.1229 31.7843 14.6507 32.0813 14.2656C32.3782 13.8805 32.7937 13.6039 33.2636 13.4788C33.7335 13.3537 34.2316 13.3868 34.6807 13.5732C35.1298 13.7597 35.505 14.0889 35.7482 14.51C35.7912 14.583 35.8526 14.6434 35.9262 14.6854C35.9999 14.7273 36.0832 14.7491 36.168 14.7488C36.2527 14.7485 36.3359 14.7259 36.4092 14.6835C36.4825 14.641 36.5434 14.58 36.5859 14.5067C37.7276 12.5714 40.6918 13.3591 40.713 15.6091Z" fill="#00A13C"/>
<path d="M46.7392 30.0119C46.7449 32.3349 45.9835 34.5948 44.5733 36.4408C43.163 38.2867 41.1828 39.6155 38.9401 40.2207C39.4298 39.0612 39.7311 37.8309 39.8326 36.5763C41.0049 35.9283 41.9813 34.977 42.6597 33.8221C43.3381 32.6672 43.6935 31.3511 43.6886 30.0117C43.7141 23.6353 36.0824 20.1219 31.2766 24.3028L31.275 24.3044L31.2718 24.3076C30.0612 25.3409 29.2101 26.732 28.841 28.2802C28.8409 28.2857 28.8398 28.2912 28.8378 28.2964V28.2996C27.8635 32.3174 30.4819 36.5041 34.4966 37.3495C34.219 38.3717 33.7061 39.3147 32.9988 40.1031C28.2316 38.6465 25.0537 33.8046 25.6549 28.8209V28.816C25.8284 27.238 26.3612 25.7207 27.2124 24.3807V24.379C28.5248 22.2891 30.5293 20.7262 32.8761 19.963C33.8037 20.786 34.8481 21.467 35.9753 21.9838C36.0359 22.0094 36.1009 22.0225 36.1666 22.0225C36.2323 22.0225 36.2974 22.0094 36.3579 21.9838C37.4845 21.4667 38.5282 20.7857 39.4553 19.9629C43.7564 21.3639 46.7392 25.4556 46.7392 30.0119Z" fill="#00A13C"/>
<path d="M38.8893 36.2419V36.2435C38.7989 37.7934 38.3785 39.3062 37.6561 40.6805V40.6821H37.6546C35.8083 44.2782 31.9356 46.6325 27.8911 46.5959C19.7469 46.6875 14.3414 37.7706 18.0616 30.5734C19.3528 30.4995 20.6254 30.2318 21.8369 29.7792C21.8978 29.7553 21.9531 29.7192 21.9995 29.6731C22.0458 29.627 22.0822 29.5719 22.1064 29.5111C22.5586 28.3023 22.8263 27.0324 22.9005 25.7439C23.8442 25.2574 24.8557 24.9158 25.901 24.7305C25.3006 25.8858 24.9046 27.1363 24.7306 28.4266C19.7763 30.5354 18.4995 37.3269 22.3678 41.0856C25.4388 44.1648 30.4991 44.1298 33.5078 40.9823C34.5564 39.9027 35.2676 38.5408 35.5544 37.0634V37.0601C35.556 37.0553 35.556 37.0504 35.5576 37.0456V37.0424C36.3856 33.1431 33.7908 28.9885 29.9132 28.0328C30.2556 26.9603 30.8688 25.9942 31.6935 25.2278C36.186 26.7937 39.2519 31.5015 38.8893 36.2419Z" fill="#00A13C"/>
<path d="M21.9439 25.4325C21.9133 27.0045 21.4597 28.4427 21.2805 28.9527C20.7689 29.1319 19.3259 29.5854 17.7523 29.6161C15.6389 29.6638 13.3169 28.7709 13.262 26.6899C13.2395 25.1811 14.734 24.0454 16.1866 24.4511C16.2689 24.4732 16.3556 24.4731 16.4379 24.4509C16.5201 24.4287 16.5951 24.3852 16.6552 24.3248C16.7153 24.2644 16.7583 24.1892 16.7801 24.1068C16.8018 24.0244 16.8014 23.9377 16.7789 23.8556C16.6686 23.4625 16.6657 23.047 16.7705 22.6525C16.8752 22.2579 17.0839 21.8986 17.3747 21.612C17.8098 21.1785 18.3991 20.9352 19.0133 20.9355C19.6275 20.9359 20.2165 21.1797 20.6512 21.6137C21.5355 22.4982 21.9698 23.7829 21.9439 25.4325Z" fill="#00A13C"/>
</g>
<defs>
<clipPath id="clip0_1684_75936">
<rect width="34" height="34" fill="white" transform="translate(13 13)"/>
</clipPath>
</defs>
</svg>
