<svg width="27" height="48" viewBox="0 0 27 48" fill="none" xmlns="http://www.w3.org/2000/svg">
<path d="M11.8125 36.125H9.40625V31.7188C9.40625 29.1562 9.75 27.1354 10.4375 25.6562C11.125 24.1979 12.0208 22.9583 13.125 21.9375C14.2292 20.8958 15.1146 20.0312 15.7812 19.3438C16.4479 18.6354 17.0729 17.8333 17.6562 16.9375C18.8854 15.0417 19.5 12.6042 19.5 9.625C19.5 8.79167 19.3958 7.94792 19.1875 7.09375C18.9792 6.21875 18.6146 5.42708 18.0938 4.71875C17.5729 4.01042 16.875 3.4375 16 3C15.1458 2.54167 14.0729 2.3125 12.7812 2.3125C10.5938 2.3125 8.86458 2.72917 7.59375 3.5625C6.32292 4.375 5.6875 5.15625 5.6875 5.90625C6.95833 6.42708 7.59375 7.38542 7.59375 8.78125C7.59375 9.28125 7.5 9.73958 7.3125 10.1562C7.14583 10.5729 6.90625 10.9375 6.59375 11.25C6.28125 11.5625 5.90625 11.8125 5.46875 12C5.05208 12.1667 4.59375 12.25 4.09375 12.25C2.88542 12.25 1.9375 11.9271 1.25 11.2812C0.583333 10.6146 0.25 9.65625 0.25 8.40625C0.25 7.44792 0.510417 6.48958 1.03125 5.53125C1.55208 4.57292 2.3125 3.67708 3.3125 2.84375C4.3125 2.01042 5.63542 1.33333 7.28125 0.8125C8.92708 0.291667 10.7812 0.03125 12.8438 0.03125C15.4062 0.03125 17.7083 0.40625 19.75 1.15625C20.7708 1.53125 21.7083 2.02083 22.5625 2.625C23.4167 3.20833 24.1458 3.88542 24.75 4.65625C25.375 5.42708 25.8542 6.29167 26.1875 7.25C26.5208 8.20833 26.6875 9.22917 26.6875 10.3125C26.6875 11.8542 26.4583 13.2396 26 14.4688C25.5417 15.6979 24.9896 16.7188 24.3438 17.5312C23.7188 18.3438 22.9792 19.1354 22.125 19.9062C21.2917 20.6771 19.9375 21.7396 18.0625 23.0938C16.2083 24.4271 14.6979 25.9688 13.5312 27.7188C12.3854 29.4479 11.8125 31.0938 11.8125 32.6562V36.125ZM8.46875 46.9062C7.80208 46.1979 7.46875 45.375 7.46875 44.4375C7.46875 43.4792 7.80208 42.6667 8.46875 42C9.15625 41.3125 9.97917 40.9688 10.9375 40.9688C11.8958 40.9688 12.7083 41.3125 13.375 42C14.0417 42.6667 14.375 43.4792 14.375 44.4375C14.375 45.375 14.0417 46.1979 13.375 46.9062C12.7083 47.5729 11.8958 47.9062 10.9375 47.9062C10 47.9062 9.17708 47.5729 8.46875 46.9062Z" fill="black"/>
</svg>
