<svg width="100" height="100" viewBox="0 0 100 100" fill="none" xmlns="http://www.w3.org/2000/svg">
<path d="M49.9987 8.33398C39.082 8.33398 30.207 17.209 30.207 28.1257C30.207 38.834 38.582 47.5006 49.4987 47.8756C49.832 47.834 50.1654 47.834 50.4154 47.8756C50.4987 47.8756 50.5404 47.8756 50.6237 47.8756C50.6654 47.8756 50.6654 47.8756 50.707 47.8756C61.3737 47.5006 69.7487 38.834 69.7904 28.1257C69.7904 17.209 60.9154 8.33398 49.9987 8.33398Z" fill="#292D32"/>
<path d="M71.168 58.959C59.543 51.209 40.5846 51.209 28.8763 58.959C23.5846 62.5007 20.668 67.2923 20.668 72.4173C20.668 77.5423 23.5846 82.2923 28.8346 85.7923C34.668 89.709 42.3346 91.6673 50.0013 91.6673C57.668 91.6673 65.3346 89.709 71.168 85.7923C76.418 82.2507 79.3346 77.5007 79.3346 72.334C79.293 67.209 76.418 62.459 71.168 58.959Z" fill="#292D32"/>
</svg>
