<svg width="64" height="64" viewBox="0 0 64 64" fill="none" xmlns="http://www.w3.org/2000/svg">
<rect width="64" height="64" rx="6" fill="#F1F4F6"/>
<path d="M25 28.5003C25 30.4313 23.6532 32 21.9968 32C20.3404 32 19 30.4306 19 28.5003C19 26.5694 20.3404 25 21.9968 25C23.6532 25 25 26.5694 25 28.5003Z" fill="#00A13C"/>
<path d="M32.5 31C35.5376 31 38 28.5376 38 25.5C38 22.4624 35.5376 20 32.5 20C29.4624 20 27 22.4624 27 25.5C27 28.5376 29.4624 31 32.5 31Z" fill="#00A13C"/>
<path d="M42.9971 25C44.6537 25 46 26.5694 46 28.5003C46 30.4313 44.6537 32 42.9971 32C41.3405 32 40 30.4306 40 28.5003C40 26.5694 41.3405 25 42.9971 25Z" fill="#00A13C"/>
<path d="M50 37.6002V40.1297C50 40.4439 49.8378 40.7282 49.5946 40.8314C48.273 41.4082 46.9064 41.7965 45.5094 42V41.985V38.4397C45.5162 36.6965 44.9742 35.0214 44 33.7257C44.5738 33.615 45.1227 33.3673 45.616 33C47.5489 33.5529 49.9875 34.8254 50 37.6002Z" fill="#00A13C"/>
<path d="M44 38.5431V41.8913C44 42.4855 43.6142 43.0224 43.0399 43.2196C36.2278 45.5935 28.7729 45.5935 21.9608 43.2196C21.3858 43.0224 21 42.4855 21 41.8913V38.5431C21.0073 34.5802 25.3308 32.7715 28.73 32C31.0373 33.413 33.9707 33.406 36.278 32C39.6757 32.7842 43.9847 34.571 44 38.5431Z" fill="#00A13C"/>
<path d="M21 33.7256C20.027 35.0198 19.4906 36.6962 19.4906 38.4392V41.9843V42C18.0998 41.7973 16.7277 41.4098 15.4116 40.8323C15.1622 40.7275 15 40.4433 15 40.1291V37.5999C15.0062 34.8253 17.4574 33.5528 19.3846 33C19.8773 33.3658 20.4262 33.6127 21 33.7256Z" fill="#00A13C"/>
</svg>
