<svg width="16" height="16" viewBox="0 0 16 16" fill="none" xmlns="http://www.w3.org/2000/svg">
<path d="M8 0C3.57841 0 0 3.578 0 8C0 12.4215 3.578 16 8 16C12.4216 16 16 12.422 16 8C16 3.57841 12.422 0 8 0ZM8 14.8837C4.20431 14.8837 1.11628 11.7957 1.11628 8C1.11628 4.20428 4.20431 1.11628 8 1.11628C11.7957 1.11628 14.8837 4.20428 14.8837 8C14.8837 11.7957 11.7957 14.8837 8 14.8837Z" fill="#061A23"/>
<path d="M7.7291 11.5684C7.22363 11.5684 6.81445 11.9896 6.81445 12.495C6.81445 12.9885 7.2116 13.4217 7.7291 13.4217C8.2466 13.4217 8.65574 12.9885 8.65574 12.495C8.65574 11.9896 8.23452 11.5684 7.7291 11.5684Z" fill="#061A23"/>
<path d="M7.88648 4.55273C6.26177 4.55273 5.51562 5.51556 5.51562 6.16541C5.51562 6.63477 5.91277 6.85141 6.2377 6.85141C6.88759 6.85141 6.62284 5.9247 7.85038 5.9247C8.45209 5.9247 8.93352 6.18948 8.93352 6.74309C8.93352 7.39295 8.25955 7.76602 7.86241 8.10298C7.51337 8.40381 7.05609 8.89727 7.05609 9.93227C7.05609 10.5581 7.22459 10.7386 7.71798 10.7386C8.30766 10.7386 8.42802 10.4738 8.42802 10.2451C8.42802 9.61934 8.44005 9.25831 9.10198 8.74081C9.42691 8.48809 10.4498 7.6697 10.4498 6.53845C10.4498 5.4072 9.42691 4.55273 7.88648 4.55273Z" fill="#061A23"/>
</svg>
