<svg width="23" height="23" viewBox="0 0 23 23" fill="none" xmlns="http://www.w3.org/2000/svg">
<path fill-rule="evenodd" clip-rule="evenodd" d="M10.7176 0.166504C16.5351 0.166504 21.2671 4.8985 21.2671 10.716C21.2671 13.4607 20.2138 15.964 18.4901 17.8427L21.8818 21.2273C22.1992 21.5447 22.2003 22.0582 21.8828 22.3756C21.7247 22.5359 21.5156 22.615 21.3076 22.615C21.1007 22.615 20.8927 22.5359 20.7334 22.3778L17.3008 18.9548C15.4952 20.4008 13.2056 21.2666 10.7176 21.2666C4.90008 21.2666 0.166992 16.5335 0.166992 10.716C0.166992 4.8985 4.90008 0.166504 10.7176 0.166504ZM10.7176 1.7915C5.79599 1.7915 1.79199 5.79442 1.79199 10.716C1.79199 15.6376 5.79599 19.6416 10.7176 19.6416C15.6381 19.6416 19.6421 15.6376 19.6421 10.716C19.6421 5.79442 15.6381 1.7915 10.7176 1.7915Z" fill="#00A13D"/>
</svg>
