<svg width="16" height="16" viewBox="0 0 16 16" fill="none" xmlns="http://www.w3.org/2000/svg">
<g clip-path="url(#clip0_2077_23057)">
<path d="M15.9962 4.00101C15.9921 2.89676 15.0936 2.00495 13.9893 2.00911C13.2037 2.01204 12.4927 2.47473 12.1718 3.19174L10.4648 2.90632L10.2979 3.89254L12.0134 4.17896C12.0801 4.92281 12.5559 5.56744 13.247 5.85049L12.7602 9.52295C11.7573 9.64082 11.0006 10.4892 10.9977 11.4989V11.5064L5.23479 13.026C4.92741 12.478 4.37925 12.1074 3.75621 12.0262L2.7355 3.85705C3.22108 3.66367 3.6119 3.28825 3.82469 2.81085L5.36975 3.06878L5.5342 2.08306L3.98164 1.82363C3.88726 0.72619 2.92107 -0.0869546 1.82363 0.00745613C0.72619 0.101836 -0.0869546 1.068 0.00745613 2.16544C0.0879646 3.10149 0.810822 3.8544 1.74278 3.97302L2.76449 12.1407C1.73762 12.5468 1.23436 13.7085 1.64046 14.7353C2.04657 15.7622 3.20821 16.2654 4.23507 15.8593C4.99864 15.5574 5.49996 14.8193 5.49921 13.9982V13.9907L11.2621 12.4711C11.7989 13.433 13.0137 13.7776 13.9756 13.2408C14.9374 12.704 15.282 11.4891 14.7453 10.5273C14.5233 10.1295 14.1719 9.81974 13.7494 9.64941L14.2362 5.97695C15.238 5.85792 15.9934 5.00988 15.9962 4.00101ZM2.0002 3.0013C1.44808 3.0013 1.00049 2.5537 1.00049 2.00158C1.00049 1.44945 1.44808 1.00186 2.0002 1.00186C2.55233 1.00186 2.99992 1.44945 2.99992 2.00158C2.99992 2.5537 2.55233 3.0013 2.0002 3.0013ZM3.49978 14.9979C2.94765 14.9979 2.50006 14.5503 2.50006 13.9982C2.50006 13.4461 2.94765 12.9985 3.49978 12.9985C4.0519 12.9985 4.4995 13.4461 4.4995 13.9982C4.4995 14.5503 4.0519 14.9979 3.49978 14.9979ZM13.9968 11.4989C13.9968 12.051 13.5492 12.4986 12.9971 12.4986C12.445 12.4986 11.9974 12.051 11.9974 11.4989C11.9974 10.9468 12.445 10.4992 12.9971 10.4992C13.5492 10.4992 13.9968 10.9468 13.9968 11.4989ZM12.9971 4.00101C12.9971 3.44889 13.4447 3.0013 13.9968 3.0013C14.5489 3.0013 14.9965 3.44889 14.9965 4.00101C14.9965 4.55314 14.5489 5.00073 13.9968 5.00073C13.4447 5.00073 12.9971 4.55314 12.9971 4.00101Z" fill="#061A23"/>
<path d="M9.47831 2.74268L8.49219 2.57812L8.32763 3.56425L9.31375 3.7288L9.47831 2.74268Z" fill="#282828"/>
<path d="M7.50165 2.4128L6.51562 2.24805L6.35087 3.23407L7.33689 3.39882L7.50165 2.4128Z" fill="#282828"/>
</g>
<defs>
<clipPath id="clip0_2077_23057">
<rect width="16" height="16" fill="white"/>
</clipPath>
</defs>
</svg>
