<svg width="172" height="129" viewBox="0 0 172 129" fill="none" xmlns="http://www.w3.org/2000/svg">
<rect width="172" height="129" rx="10" fill="#F1F4F6"/>
<path d="M51.886 39.494L50.736 35.768L61.408 30.8H63.662V63H59.2V36.228L51.886 39.494ZM76.4982 59.228V59.412C78.0622 59.274 83.2602 59.228 83.7662 59.228H93.1502V63H70.0582L69.4602 60.056L82.8462 47.958C85.3762 45.796 87.4002 43.404 87.4002 40.322C87.4002 36.458 84.6862 34.25 80.6382 34.25C75.2562 34.25 73.9682 37.424 73.9682 39.586H69.4142C69.4142 35.998 71.9442 30.294 80.6382 30.294C87.4922 30.294 91.8622 34.158 91.8622 40.23C91.8622 45.198 89.0102 48.096 85.9742 50.81L76.4982 59.228Z" fill="#00A13C"/>
<path d="M107.96 68.014H105.338L106.258 62.816C101.06 61.206 98.162 56.928 98.162 51.776C98.162 45.198 102.532 39.724 110.49 39.494L111.318 35.124H113.94L113.112 39.678C114.952 40 117.114 40.69 119.322 42.3L117.206 45.336C115.504 44.094 113.664 43.68 112.422 43.542L109.524 59.412C110.076 59.504 110.674 59.55 111.272 59.55C111.916 59.55 114.768 59.504 117.206 57.664L119.322 60.7C116.194 63.046 113.158 63.506 111.088 63.506C110.306 63.506 109.524 63.46 108.788 63.322L107.96 68.014ZM102.624 51.5C102.624 54.812 104.28 57.296 107.04 58.63L109.754 43.542C105.568 44.14 102.624 47.222 102.624 51.5Z" fill="#00A13C"/>
<path d="M67.032 100.032V102H56.352V85.2H67.032V87.168H58.752V92.784H65.976V94.752H58.752V100.032H67.032ZM73.0031 96.576H79.7711L76.3631 87.504L73.0031 96.576ZM80.4911 98.52H72.2831L70.9871 102H68.5151L74.9711 85.2H77.7551L84.2351 102H81.8111L80.4911 98.52ZM85.1274 93.6C85.1274 88.92 88.4874 84.936 94.1994 84.936C96.6714 84.936 98.3034 85.656 99.7434 86.736L98.8074 88.536C97.6794 87.696 95.9274 87.096 94.1994 87.096C89.9994 87.096 87.5754 90.048 87.5754 93.6C87.5754 97.152 89.9994 100.104 94.1994 100.104C95.9274 100.104 97.6794 99.504 98.8074 98.664L99.7434 100.464C98.3034 101.544 96.6714 102.264 94.1994 102.264C88.4874 102.264 85.1274 98.28 85.1274 93.6ZM113.006 94.968H105.158V102H102.758V85.2H105.158V93.024H113.006V85.2H115.406V102H113.006V94.968Z" fill="#727272"/>
</svg>
