<svg width="34" height="34" viewBox="0 0 34 34" fill="none" xmlns="http://www.w3.org/2000/svg">
<path d="M20.9844 14.0117C21.534 14.0117 21.9805 13.5652 21.9805 13.0156V12.0195H19.9883V13.0156C19.9883 13.5652 20.4348 14.0117 20.9844 14.0117Z" fill="#00A13C"/>
<path d="M6.04297 10.4218C6.04297 10.204 6.21958 10.0273 6.43744 10.0273H11.0234C11.5736 10.0273 12.0195 10.4733 12.0195 11.0234V11.0234C12.0195 11.5736 12.4655 12.0195 13.0156 12.0195H17C17.5501 12.0195 17.9961 11.5736 17.9961 11.0234V11.0234C17.9961 10.4733 18.4421 10.0273 18.9922 10.0273H23.5798C23.7967 10.0273 23.9727 10.2033 23.9727 10.4202V10.4202C23.9727 10.7341 24.3224 10.9212 24.5835 10.7472L29.5039 7.46688C29.7821 7.28142 29.9492 6.96919 29.9492 6.63483V4.98438C29.9492 4.43209 29.5015 3.98438 28.9492 3.98438H22.2181C21.8394 3.98438 21.4931 3.77037 21.3237 3.43159L19.8843 0.552786C19.7149 0.214002 19.3686 0 18.9899 0H11.0258C10.647 0 10.3007 0.214002 10.1313 0.552786L8.69192 3.43159C8.52253 3.77037 8.17627 3.98438 7.7975 3.98438H1C0.447715 3.98438 0 4.43209 0 4.98438V6.63155C0 6.96771 0.168897 7.28138 0.449541 7.46642L5.43136 10.7511C5.69364 10.9241 6.04297 10.736 6.04297 10.4218V10.4218ZM11.3638 2.54281C11.5326 2.20535 11.8775 1.99219 12.2548 1.99219H17.7608C18.1381 1.99219 18.483 2.20535 18.6517 2.54281V2.54281C18.9829 3.20512 18.5013 3.98438 17.7608 3.98438H12.2548C11.5143 3.98438 11.0327 3.20512 11.3638 2.54281V2.54281Z" fill="#00A13C"/>
<path d="M9.03125 14.0117C9.58083 14.0117 10.0273 13.5652 10.0273 13.0156V12.0195H8.03516V13.0156C8.03516 13.5652 8.48167 14.0117 9.03125 14.0117Z" fill="#00A13C"/>
<path d="M25.9648 16.0041C26.8443 16.0041 27.6953 16.1224 28.5064 16.3404C29.2034 16.5276 29.9492 16.039 29.9492 15.3173V11.433C29.9492 10.6343 29.0591 10.1579 28.3945 10.6009L24.262 13.356C24.0399 13.5041 23.8939 13.7377 23.8067 13.99C23.402 15.1606 22.2909 16.0041 20.9844 16.0041C19.9379 16.0041 19.0227 15.4603 18.4915 14.6425C18.2612 14.2879 17.8973 14.0119 17.4745 14.0119H12.5411C12.1183 14.0119 11.7544 14.2879 11.5241 14.6425C10.9929 15.4603 10.0777 16.0041 9.03125 16.0041C7.72578 16.0041 6.61537 15.162 6.20992 13.9928C6.12188 13.739 5.97433 13.5041 5.75 13.3561L1.5505 10.5869C0.885631 10.1485 0 10.6253 0 11.4217V22.9728C0 23.5251 0.447715 23.9728 1 23.9728H15.3885C15.8638 23.9728 16.2682 23.6363 16.4013 23.1801C17.6092 19.0389 21.439 16.0041 25.9648 16.0041Z" fill="#00A13C"/>
<path d="M25.9648 17.9961C21.5638 17.9961 17.9961 21.5638 17.9961 25.9648C17.9961 30.3658 21.5638 34 25.9648 34C30.3659 34 34 30.3658 34 25.9648C34 21.5638 30.3659 17.9961 25.9648 17.9961ZM30.1895 28.7809L28.7809 30.1895L25.9648 27.3734L23.1488 30.1895L21.7402 28.7809L24.5563 25.9648L21.7402 23.1488L23.1488 21.7402L25.9648 24.5563L28.7809 21.7402L30.1895 23.1488L27.3734 25.9648L30.1895 28.7809Z" fill="#00A13C"/>
</svg>
