<svg width="64" height="64" viewBox="0 0 64 64" fill="none" xmlns="http://www.w3.org/2000/svg">
<rect width="64" height="64" rx="6" fill="#F1F4F6"/>
<g clip-path="url(#clip0_2106_28814)">
<path d="M45.9453 28.9453C44.2975 28.9453 42.957 30.2858 42.957 31.9336V33.9258C42.957 34.4754 42.5105 34.9219 41.9609 34.9219C41.7372 34.9219 32.3736 34.9219 32.9961 34.9219V32.9297H37.9766C39.6244 32.9297 40.9648 31.5892 40.9648 29.9414C40.9648 29.5309 41.0763 30.4178 38.9143 17.4007C38.637 16.0097 37.4046 15 35.9844 15H28.0156C26.5905 15 25.3571 16.0136 25.0779 17.4416L23.0352 29.9414C23.0352 31.5892 24.3756 32.9297 26.0234 32.9297H31.0039V34.9219H22.0391C21.4895 34.9219 21.043 34.4754 21.043 33.9258V31.9336C21.043 30.2858 19.7025 28.9453 18.0547 28.9453H17.0586V30.9375H18.0547C18.6043 30.9375 19.0508 31.384 19.0508 31.9336V33.9258C19.0508 35.5736 20.3913 36.9141 22.0391 36.9141H23.0352V37.9102C23.0352 39.558 24.3756 40.8984 26.0234 40.8984H31.0039V45.0156H30.0078C28.8736 45.0156 28.0477 45.6936 27.3834 46.2374C26.8804 46.6508 26.4456 47.0078 26.0234 47.0078H25.0273V49H26.0234C27.1577 49 27.9836 48.322 28.6479 47.7783C29.1508 47.3648 29.5857 47.0078 30.0078 47.0078H33.9922C34.4143 47.0078 34.8492 47.3648 35.3521 47.7783C36.0164 48.322 36.8423 49 37.9766 49H38.9727V47.0078H37.9766C37.5544 47.0078 37.1196 46.6508 36.6166 46.2374C35.9523 45.6936 35.1264 45.0156 33.9922 45.0156H32.9961V40.8984H37.9766C39.6244 40.8984 40.9648 39.558 40.9648 37.9102V36.9141H41.9609C43.6087 36.9141 44.9492 35.5736 44.9492 33.9258V31.9336C44.9492 31.384 45.3957 30.9375 45.9453 30.9375H46.9414V28.9453H45.9453ZM32.9961 28.9453H31.0039V26.9531H32.9961V28.9453ZM32 18.9844C33.6478 18.9844 34.9883 20.3249 34.9883 21.9727C34.9883 23.0864 34.3754 24.1 33.3901 24.6185C33.1547 24.7431 32.9961 25.0621 32.9961 25.4133H31.0039C31.0039 24.3082 31.5632 23.3287 32.4621 22.8559C32.7918 22.6827 32.9961 22.3443 32.9961 21.9727C32.9961 21.4231 32.5496 20.9766 32 20.9766C31.4504 20.9766 31.0039 21.4231 31.0039 21.9727H29.0117C29.0117 20.3249 30.3522 18.9844 32 18.9844Z" fill="#00A13C"/>
</g>
<defs>
<clipPath id="clip0_2106_28814">
<rect width="34" height="34" fill="white" transform="translate(15 15)"/>
</clipPath>
</defs>
</svg>
