<svg width="112" height="38" viewBox="0 0 112 38" fill="none" xmlns="http://www.w3.org/2000/svg">
<line x1="31.9998" y1="19.5" x2="-0.000244097" y2="19.5" stroke="#00A13C"/>
<line x1="112" y1="19.5" x2="79.9998" y2="19.5" stroke="#00A13C"/>
<circle cx="55.9998" cy="19" r="19" fill="#00A13C"/>
<path d="M57.0915 13.2529H54.6049L51.0456 22.2874L47.4864 13.2529H44.9998L49.7048 24.7471H52.3864L57.0915 13.2529Z" fill="white"/>
<path d="M66.6585 15.7356C66.0246 13.6667 64.245 13 62.5873 13C60.1738 13 58.5648 14.4943 58.5648 16.4253C58.5648 18.0115 59.6131 19 61.5634 19.5517L63.1967 20.0805C64.05 20.3563 64.7326 20.7241 64.7326 21.5287C64.7326 22.4253 63.8793 23.092 62.636 23.092C61.3927 23.092 60.2957 22.4253 60.0031 21.5057L57.9066 21.9885C58.4917 23.9425 60.442 25 62.6116 25C64.9763 25 66.9998 23.7356 66.9998 21.5517C66.9998 20.3333 66.3903 18.977 64.0743 18.3103L62.3191 17.7586C61.5634 17.5057 60.8564 17.1379 60.8564 16.3793C60.8564 15.5517 61.5634 14.908 62.6604 14.908C63.4161 14.908 64.1719 15.1379 64.5619 16.1724L66.6585 15.7356Z" fill="white"/>
</svg>
