<svg width="16" height="13" viewBox="0 0 16 13" fill="none" xmlns="http://www.w3.org/2000/svg">
<path d="M13.3333 0C12.1547 0 11.2 0.969583 11.2 2.16667H10.1333V3.25H13.3333V2.16667H12.2667C12.2667 1.52154 12.6981 1.08333 13.3333 1.08333C13.9685 1.08333 14.4 1.52154 14.4 2.16667V5.41667H0V6.5H0.6336L1.4496 10.6134V10.6302C1.51154 10.9064 1.6421 11.1619 1.82882 11.3723C2.01554 11.5827 2.25221 11.741 2.51627 11.8322L2.13333 13H3.2L3.54987 11.9167H12.4501L12.8 13H13.8667L13.4832 11.8322C14.0416 11.6588 14.4752 11.2038 14.6 10.6302V10.6134L15.3669 6.5H16V5.41667H15.4667V2.16667C15.4667 0.969583 14.512 0 13.3333 0ZM1.7168 6.5H14.2997L13.5499 10.4103C13.4875 10.6448 13.2917 10.8333 13.0165 10.8333H3.0336C2.74773 10.8333 2.55413 10.641 2.50027 10.393L1.7168 6.5Z" fill="#061A23"/>
</svg>
