<svg width="18" height="9" viewBox="0 0 18 9" fill="none" xmlns="http://www.w3.org/2000/svg">
<path d="M13.7556 0.000244141C13.3387 0.000244141 12.9999 0.335969 12.9999 0.749168V3.75132H5.04567V0.749168C5.04567 0.335969 4.7069 0.000244141 4.28996 0.000244141C3.87301 0.000244141 3.53425 0.335969 3.53425 0.749168V8.25132C3.53425 8.66452 3.87301 9.00024 4.28996 9.00024C4.7069 9.00024 5.04567 8.66452 5.04567 8.25132V5.24917H12.9999V8.25132C12.9999 8.66452 13.3387 9.00024 13.7556 9.00024C14.1726 9.00024 14.5114 8.66452 14.5114 8.25132V0.749168C14.5114 0.335969 14.1726 0.000244141 13.7556 0.000244141ZM15.4983 1.75957C15.0814 1.75957 14.7426 2.09529 14.7426 2.50849V6.49199C14.7426 6.90519 15.0814 7.24092 15.4983 7.24092C15.9153 7.24092 16.254 6.90519 16.254 6.49199V2.50849C16.254 2.09529 15.9153 1.75957 15.4983 1.75957ZM17.2443 2.52786C16.8273 2.52786 16.4886 2.86359 16.4886 3.27679V5.7237C16.4886 6.1369 16.8273 6.47263 17.2443 6.47263C17.6612 6.47263 18 6.1369 18 5.7237V3.27679C18 2.86359 17.6612 2.52786 17.2443 2.52786ZM0.755709 2.52786C0.338766 2.52786 0 2.86359 0 3.27679V5.7237C0 6.1369 0.338766 6.47263 0.755709 6.47263C1.17265 6.47263 1.51142 6.1369 1.51142 5.7237V3.27679C1.51142 2.86359 1.17265 2.52786 0.755709 2.52786ZM2.5212 1.75957C2.10426 1.75957 1.7655 2.09529 1.7655 2.50849V6.49199C1.7655 6.90519 2.10426 7.24092 2.5212 7.24092C2.93815 7.24092 3.27692 6.90519 3.27692 6.49199V2.50849C3.27692 2.09529 2.94141 1.75957 2.5212 1.75957Z" fill="white"/>
</svg>
