<svg width="16" height="16" viewBox="0 0 16 16" fill="none" xmlns="http://www.w3.org/2000/svg">
<path d="M11.4284 6.74275L8.42841 1.74275C8.38069 1.67314 8.31674 1.61621 8.24208 1.57687C8.16742 1.53753 8.0843 1.51697 7.99991 1.51697C7.91551 1.51697 7.83239 1.53753 7.75773 1.57687C7.68307 1.61621 7.61912 1.67314 7.5714 1.74275L4.5714 6.74275C4.52583 6.81861 4.5012 6.90521 4.50004 6.9937C4.49888 7.08219 4.52123 7.16941 4.5648 7.24643C4.60838 7.32346 4.67161 7.38755 4.74806 7.43214C4.8245 7.47673 4.91141 7.50024 4.99991 7.50025H10.9999C11.0884 7.50024 11.1753 7.47673 11.2518 7.43214C11.3282 7.38755 11.3914 7.32346 11.435 7.24643C11.4786 7.16941 11.5009 7.08219 11.4998 6.9937C11.4986 6.90521 11.474 6.81861 11.4284 6.74275Z" fill="white"/>
<path d="M11.9095 10.7137L8.40947 5.71374C8.36105 5.65125 8.29898 5.60066 8.228 5.56586C8.15702 5.53106 8.07902 5.51297 7.99997 5.51297C7.92091 5.51297 7.84291 5.53106 7.77193 5.56586C7.70095 5.60066 7.63888 5.65125 7.59047 5.71374L4.09047 10.7137C4.03808 10.7887 4.00725 10.8765 4.0013 10.9677C3.99536 11.059 4.01454 11.1501 4.05676 11.2311C4.09897 11.3122 4.16261 11.3802 4.24075 11.4276C4.3189 11.4751 4.40855 11.5002 4.49997 11.5002H11.5C11.5914 11.5002 11.681 11.4751 11.7592 11.4276C11.8373 11.3802 11.901 11.3122 11.9432 11.2311C11.9854 11.1501 12.0046 11.059 11.9986 10.9677C11.9927 10.8765 11.9618 10.7887 11.9095 10.7137Z" fill="white"/>
<path d="M8 14.5002C7.86739 14.5002 7.74021 14.4476 7.64645 14.3538C7.55268 14.26 7.5 14.1329 7.5 14.0002V11.0002C7.5 10.8676 7.55268 10.7405 7.64645 10.6467C7.74021 10.5529 7.86739 10.5002 8 10.5002C8.13261 10.5002 8.25979 10.5529 8.35355 10.6467C8.44732 10.7405 8.5 10.8676 8.5 11.0002V14.0002C8.5 14.1329 8.44732 14.26 8.35355 14.3538C8.25979 14.4476 8.13261 14.5002 8 14.5002Z" fill="white"/>
<path d="M9.5 14.5002H6.5C6.36739 14.5002 6.24021 14.4476 6.14645 14.3538C6.05268 14.26 6 14.1329 6 14.0002C6 13.8676 6.05268 13.7405 6.14645 13.6467C6.24021 13.5529 6.36739 13.5002 6.5 13.5002H9.5C9.63261 13.5002 9.75979 13.5529 9.85355 13.6467C9.94732 13.7405 10 13.8676 10 14.0002C10 14.1329 9.94732 14.26 9.85355 14.3538C9.75979 14.4476 9.63261 14.5002 9.5 14.5002Z" fill="white"/>
</svg>
