<svg width="16" height="12" viewBox="0 0 16 12" fill="none" xmlns="http://www.w3.org/2000/svg">
<path d="M2.22504 6.80924V8.7419C2.22504 9.24398 2.53115 9.71166 3.02093 9.95239L6.8473 11.83C7.30647 12.057 7.85747 12.057 8.31663 11.83L12.143 9.95239C12.6328 9.71166 12.9389 9.24398 12.9389 8.7419V6.80924L8.31663 9.07891C7.85747 9.30588 7.30647 9.30588 6.8473 9.07891L2.22504 6.80924ZM6.8473 0.165311L0.39603 3.32909C-0.13201 3.59044 -0.13201 4.27822 0.39603 4.53958L6.8473 7.70335C7.30647 7.93032 7.85747 7.93032 8.31663 7.70335L14.4694 4.68401V8.74878C14.4694 9.12705 14.8138 9.43655 15.2347 9.43655C15.6556 9.43655 16 9.12705 16 8.74878V4.34012C16 4.08564 15.8469 3.85868 15.6021 3.73488L8.31663 0.165311C7.85747 -0.0547781 7.30647 -0.0547781 6.8473 0.165311V0.165311Z" fill="white"/>
</svg>
